<?xml version="1.0" encoding="UTF-8" standalone="no"?>
<svg
   xmlns:dc="http://purl.org/dc/elements/1.1/"
   xmlns:cc="http://creativecommons.org/ns#"
   xmlns:rdf="http://www.w3.org/1999/02/22-rdf-syntax-ns#"
   xmlns:svg="http://www.w3.org/2000/svg"
   xmlns="http://www.w3.org/2000/svg"
   xmlns:sodipodi="http://sodipodi.sourceforge.net/DTD/sodipodi-0.dtd"
   xmlns:inkscape="http://www.inkscape.org/namespaces/inkscape"
   viewBox="0 0 82 82"
   version="1.1"
   id="svg4"
   sodipodi:docname="IC_rotation.svg"
   inkscape:version="1.0.1 (0767f8302a, 2020-10-17)">
  <metadata
     id="metadata10">
    <rdf:RDF>
      <cc:Work
         rdf:about="">
        <dc:format>image/svg+xml</dc:format>
        <dc:type
           rdf:resource="http://purl.org/dc/dcmitype/StillImage" />
      </cc:Work>
    </rdf:RDF>
  </metadata>
  <defs
     id="defs8" />
  <sodipodi:namedview
     pagecolor="#ffffff"
     bordercolor="#666666"
     borderopacity="1"
     objecttolerance="10"
     gridtolerance="10"
     guidetolerance="10"
     inkscape:pageopacity="0"
     inkscape:pageshadow="2"
     inkscape:window-width="1920"
     inkscape:window-height="1018"
     id="namedview6"
     showgrid="false"
     inkscape:zoom="9.254065"
     inkscape:cx="53.12005"
     inkscape:cy="40.418459"
     inkscape:window-x="0"
     inkscape:window-y="27"
     inkscape:window-maximized="1"
     inkscape:current-layer="svg4" />
  <path
     d="m41 1c-2.7392 0-5.4152 0.28719-8 0.8125v6.1875c-3.4748 0.83887-6.7198 2.1846-9.6875 4l-4.375-4.375c-2.2426 1.4861-4.2923 3.2298-6.1875 5.125-1.8953 1.8952-3.6389 3.9449-5.125 6.1875l4.375 4.375c-1.8154 2.9677-3.1611 6.2126-4 9.6875h-6.1875c-0.5253 2.5848-0.8125 5.2608-0.8125 8s0.2872 5.4152 0.8125 8h6.1875c0.83887 3.4748 2.1846 6.7198 4 9.6875l-4.375 4.375c1.4861 2.2426 3.2297 4.2923 5.125 6.1875 1.8952 1.8952 3.9449 3.6389 6.1875 5.125l4.375-4.375c2.9677 1.8154 6.2126 3.1611 9.6875 4v6.1875c2.5848 0.5253 5.2608 0.8125 8 0.8125 2.7391 0 5.4151-0.2872 8-0.8125v-6.1875c3.4748-0.83888 6.7198-2.1846 9.6875-4l4.375 4.375c2.2426-1.4861 4.2922-3.2298 6.1875-5.125 1.8952-1.8952 3.6389-3.9449 5.125-6.1875l-4.375-4.375c1.8154-2.9677 3.1611-6.2126 4-9.6875h6.1875c0.5253-2.5848 0.8125-5.2608 0.8125-8s-0.2872-5.4152-0.8125-8h-6.1875c-0.8389-3.4748-2.1846-6.7198-4-9.6875l4.375-4.375c-1.4861-2.2426-3.2298-4.2923-5.125-6.1875-1.8953-1.8952-3.9449-3.6389-6.1875-5.125l-4.375 4.375c-2.9677-1.8154-6.2127-3.1611-9.6875-4v-6.1875c-2.5849-0.52531-5.2609-0.8125-8-0.8125zm0 20c11.04 0 20 8.96 20 20s-8.96 20-20 20-20-8.96-20-20 8.96-20 20-20z"
     fill="#fff"
     stroke="#2c2c2c"
     stroke-dashoffset="162"
     stroke-linecap="round"
     stroke-linejoin="round"
     stroke-width="2"
     id="path2"
     style="fill:#ffffff;stroke:#ffffff" />
</svg>
