<?xml version="1.0" encoding="UTF-8" standalone="no"?>
<svg
   xmlns:dc="http://purl.org/dc/elements/1.1/"
   xmlns:cc="http://creativecommons.org/ns#"
   xmlns:rdf="http://www.w3.org/1999/02/22-rdf-syntax-ns#"
   xmlns:svg="http://www.w3.org/2000/svg"
   xmlns="http://www.w3.org/2000/svg"
   xmlns:sodipodi="http://sodipodi.sourceforge.net/DTD/sodipodi-0.dtd"
   xmlns:inkscape="http://www.inkscape.org/namespaces/inkscape"
   enable-background="new 0 0 1683.758 1646.725"
   version="1.1"
   viewBox="0 0 1599.9984 1600"
   id="svg294"
   sodipodi:docname="IC_shading.svg"
   inkscape:version="1.0.1 (0767f8302a, 2020-10-17)"
   width="1599.9984"
   height="1600">
  <metadata
     id="metadata300">
    <rdf:RDF>
      <cc:Work
         rdf:about="">
        <dc:format>image/svg+xml</dc:format>
        <dc:type
           rdf:resource="http://purl.org/dc/dcmitype/StillImage" />
        <dc:title />
      </cc:Work>
    </rdf:RDF>
  </metadata>
  <defs
     id="defs298" />
  <sodipodi:namedview
     pagecolor="#ffffff"
     bordercolor="#666666"
     borderopacity="1"
     objecttolerance="10"
     gridtolerance="10"
     guidetolerance="10"
     inkscape:pageopacity="0"
     inkscape:pageshadow="2"
     inkscape:window-width="1920"
     inkscape:window-height="1018"
     id="namedview296"
     showgrid="false"
     inkscape:snap-global="false"
     inkscape:zoom="0.39372871"
     inkscape:cx="1273.5553"
     inkscape:cy="990.57971"
     inkscape:window-x="0"
     inkscape:window-y="27"
     inkscape:window-maximized="1"
     inkscape:current-layer="svg294"
     fit-margin-top="0"
     fit-margin-left="0"
     fit-margin-right="0"
     fit-margin-bottom="0"
     inkscape:document-rotation="0" />
  <path
     id="path2"
     d="M 798.38809,0 C 761.9421,0.06607 725.63942,2.222787 689.85259,6.425585 685.38221,14.703332 681.12631,25.06364 676.92292,37.440262 716.8502,32.784405 757.42197,30.386525 798.19325,30.313527 798.25685,18.262895 798.31865,8.209749 798.38809,0 Z m 20.06209,0.177729 c 0.77066,8.208749 1.47815,18.271426 2.18328,30.333058 40.69078,0.782951 81.06232,3.880222 120.67055,9.20675 C 936.48939,27.245918 931.60714,16.803815 926.5177,8.486069 890.98451,3.674216 854.83617,0.883707 818.45018,0.177729 Z M 670.37117,8.925508 c -35.00116,4.869852 -69.14403,11.670457 -102.10218,20.257195 -8.8009,8.855729 -17.51734,19.995639 -26.09428,33.280233 36.34687,-9.406713 74.15372,-16.88625 113.04531,-22.259086 h 0.002 c 4.93393,-12.491618 9.9395,-22.951596 15.14923,-31.278342 z m 275.46749,2.388599 c 5.80827,8.379744 11.42379,18.928766 16.95626,31.526381 38.44958,6.003817 75.71518,14.065571 111.43318,23.999267 v 0 C 1065.1612,53.422165 1055.946,42.162071 1046.6649,33.192346 1014.2046,24.106624 980.4898,16.763941 945.83486,11.314107 Z M 550.51242,34.016539 c -31.53615,8.953726 -61.68394,19.499951 -90.20398,31.434587 -11.98327,9.866698 -23.97915,21.981256 -35.78247,36.293814 30.83201,-12.859608 63.63232,-24.273078 98.14058,-34.006775 9.16177,-13.444588 18.47187,-24.727901 27.84587,-33.721626 z m 513.64738,4.269402 c 9.8307,9.11472 19.6139,20.522888 29.2402,34.102473 33.8071,10.200688 65.8517,22.019078 95.8866,35.217666 -12.1231,-14.437558 -24.4431,-26.680578 -36.7452,-36.690277 -27.8697,-12.278625 -57.4049,-23.22615 -88.3816,-32.629862 z m -266.00666,1.005828 c -41.76296,0.075 -83.31686,2.522314 -124.19474,7.275169 -4.95448,15.835515 -9.74501,34.192624 -14.49216,55.136982 45.49007,-5.189838 91.83106,-7.877738 138.46342,-7.958728 0.0724,-20.665377 0.14719,-38.763902 0.22348,-54.453423 z m 22.9846,0.201166 c 0.84498,15.69352 1.65625,33.799576 2.46407,54.472947 46.52477,0.87897 92.58816,4.3464 137.64202,10.269218 -5.41609,-21.026358 -10.88804,-39.460501 -16.53787,-55.344015 -40.54145,-5.435834 -81.8835,-8.597175 -123.56822,-9.39815 z m -169.39797,9.900087 c -39.77863,5.478833 -78.41311,13.098522 -115.52085,22.66923 -9.75542,16.3625 -19.28991,35.419198 -28.6424,57.111528 40.66078,-10.23268 83.2089,-18.44996 127.22612,-24.39378 5.54616,-21.043358 11.15234,-39.493463 16.93713,-55.386978 z m 314.9136,2.685465 c 6.45666,15.950513 12.72143,34.483095 18.91403,55.617443 43.406,6.6198 85.2248,15.44646 125.0563,26.21013 -9.8376,-21.79233 -19.8835,-40.947178 -30.1533,-57.396678 C 1044.0243,66.406851 1005.9619,58.19727 966.65337,52.078487 Z m -521.5572,19.936891 c -26.7714,11.916644 -51.8683,25.013204 -75.15025,39.041782 -13.90892,10.98065 -27.8449,24.03724 -41.53769,39.20778 24.48487,-14.85355 51.12204,-28.76454 79.75749,-41.48115 12.18278,-14.462558 24.56772,-26.729718 36.93045,-36.768412 z m 71.23066,5.404134 c -35.15862,9.88369 -68.53571,21.45972 -99.8616,34.483318 -13.0353,17.0421 -25.80972,36.7691 -38.20642,59.09781 33.52766,-13.54222 69.49056,-25.67637 107.62628,-36.12781 9.93047,-21.81233 20.07312,-40.986828 30.44174,-57.453318 z m 651.04307,0.23632 c 12.658,10.18269 25.3376,22.576468 37.8128,37.159018 27.8247,12.99661 53.637,27.12784 77.2916,42.13739 -13.8444,-15.25954 -27.9374,-28.42697 -42.0057,-39.54763 -22.5886,-14.20656 -46.9963,-27.539148 -73.0987,-39.748778 z m -67.3207,4.49205 c 10.8504,16.5562 21.4731,35.823918 31.8571,57.730658 37.2251,10.90466 72.22,23.41509 104.742,37.25667 -12.6728,-22.38032 -25.7481,-42.17644 -39.0927,-59.30092 -30.4964,-13.35907 -63.0818,-25.335008 -97.5064,-35.686408 z M 797.87235,108.62558 c -47.74726,0.083 -95.17999,2.82244 -141.71064,8.10327 -5.41707,25.40723 -10.70505,53.84972 -15.93239,85.44075 51.53501,-5.66982 104.24305,-8.65387 157.39662,-8.74387 0.0821,-31.34804 0.16422,-59.56292 0.24832,-84.80015 z m 26.28721,0.23046 c 0.92811,25.24323 1.83542,53.46464 2.74103,84.81968 52.99612,0.97297 105.2905,4.80886 156.21421,11.24966 -5.9305,-31.65603 -11.9447,-60.16325 -18.10993,-85.61847 -46.07389,-6.02282 -93.20968,-9.55589 -140.83958,-10.45087 z m -466.52633,9.81417 c -21.51962,13.65258 -41.30883,28.06317 -59.34584,42.95571 -14.64925,12.00264 -29.30454,25.81808 -43.67703,41.5456 18.2639,-15.52852 38.59105,-30.58073 60.93315,-44.88729 13.87176,-15.27754 27.99204,-28.46537 42.08972,-39.61402 z m 42.23297,0.35154 c -29.02175,12.84761 -55.97754,26.88165 -80.70299,41.8542 -14.78814,17.56346 -29.24567,37.62604 -43.15557,60.11535 25.69073,-15.15754 53.94173,-29.44987 84.59966,-42.63347 12.72458,-22.38931 25.85657,-42.1956 39.2589,-59.33608 z m 231.0818,0.8281 c -44.96,6.03681 -88.36769,14.37227 -129.79716,24.71995 -10.43316,25.80622 -20.54185,54.723 -30.30803,86.76102 44.87883,-10.66467 92.21314,-19.41753 141.5731,-25.82734 6.06645,-31.66903 12.22114,-60.18841 18.53209,-85.65363 z m 358.9803,2.96476 c 7.0278,25.51822 13.8769,54.1041 20.6084,85.84113 48.5042,7.09778 94.8414,16.42985 138.62,27.56751 -10.1955,-32.06402 -20.7789,-61.02213 -31.7177,-86.87234 -40.56,-10.87367 -83.1982,-19.81751 -127.5107,-26.5363 z m 262.4977,2.29876 c 14.2336,11.28565 28.4881,24.58061 42.487,39.94214 21.0531,14.09157 40.1815,28.84983 57.3803,44.01036 3.335,3.57189 6.5865,7.15026 9.7493,10.73015 3.4119,3.09639 6.8203,6.30263 10.2269,9.57002 2.0727,2.42596 4.1363,4.89852 6.1946,7.40212 -3.2166,-3.12391 -6.4353,-6.18297 -9.6558,-9.15988 11.727,13.80758 22.2146,27.58299 31.7597,41.04757 2.665,2.77692 5.3308,5.61421 7.9939,8.48412 1.5716,2.31693 3.1363,4.65629 4.6932,7.02322 -2.5554,-2.81791 -5.1127,-5.60567 -7.6691,-8.33959 8.7207,12.61262 16.6642,24.90099 24.2739,36.59264 1.1403,1.43795 2.2816,2.88966 3.4229,4.34361 0.7942,1.38296 1.5899,2.76408 2.3781,4.16004 -0.5858,-0.76898 -1.1734,-1.54451 -1.7592,-2.31048 1.065,1.62595 2.1261,3.23388 3.1842,4.83383 10.5261,18.82443 20.5483,38.83795 29.9585,59.99231 6.8263,5.98382 13.1606,12.01685 19.0363,18.07367 0.8792,1.53995 1.7725,3.05559 2.6761,4.55455 0.078,0.15699 0.1548,0.3176 0.233,0.47459 3.1188,5.57383 6.2181,11.2306 9.2909,16.96042 -1.5648,-2.54992 -3.08,-5.17017 -4.5518,-7.86109 1.6479,3.08191 3.292,6.17851 4.9281,9.30441 -7.0023,-7.41277 -14.7545,-14.79502 -23.2863,-22.10479 12.8565,31.07305 24.3421,64.20932 34.2256,99.15126 13.5725,9.7477 25.0027,19.65536 34.1704,29.62605 -0.3961,-1.38996 -0.811,-2.76044 -1.2129,-4.1444 3.3946,9.9087 6.678,19.95273 9.8085,30.15142 -1.9462,-6.36981 -3.0803,-13.39206 -4.1316,-20.85484 -4.3512,-12.09963 -8.9476,-23.93665 -13.7358,-35.5243 -1.0494,-3.2309 -2.1149,-6.44538 -3.1957,-9.64229 4.7237,10.94467 9.2735,22.12511 13.6059,33.54976 1.155,3.85188 2.2891,7.7239 3.3982,11.61878 1.33,1.58296 2.5815,3.16973 3.7991,4.75768 0.1722,1.63095 0.3382,3.24774 0.5006,4.83969 1.8542,5.35284 3.6578,10.75203 5.4094,16.19287 -0.5526,-0.69398 -1.1078,-1.38704 -1.6848,-2.08002 -1.0826,-3.3399 -2.176,-6.66741 -3.2968,-9.97431 0.756,7.16879 1.5741,13.91136 3.1976,20.05017 1.9334,6.6438 3.7925,13.34916 5.5871,20.10096 4.9682,22.7093 9.1647,45.90613 12.5075,69.51741 1.1784,0.87297 2.2843,1.75266 3.3561,2.63663 1.336,7.70477 2.562,15.45662 3.6809,23.24538 -1.2704,-0.91697 -2.6159,-1.82646 -4.0458,-2.72843 4.2142,36.0109 6.4633,72.56485 6.695,109.28573 1.9766,0.071 3.7703,0.14284 5.4172,0.21483 0.01,0.72498 0.02,1.44879 0.023,2.17377 1.2557,-0.138 2.8421,-0.24481 4.6035,-0.3828 0,-0.51999 -0.012,-1.04052 -0.017,-1.5605 0.3393,0.02 0.6715,0.0425 0.9894,0.0625 0,0.47299 0.012,0.94395 0.015,1.41793 1.7349,-0.14199 3.266,-0.26451 4.4181,-0.4785 -10e-4,-0.157 0,-0.31175 -0.01,-0.46874 0.2004,0.058 0.3437,0.11783 0.4298,0.17382 -0.1819,-28.75412 -1.8758,-57.41724 -5.0543,-85.74738 0.3756,-3.30442 -0.3072,-6.99716 -2.2634,-10.46062 0.5398,4.66286 1.0281,9.3373 1.4937,14.01715 -0.2543,0.82198 -0.55,1.62793 -0.8844,2.4179 -0.5634,-5.93882 -1.1712,-11.86889 -1.8528,-17.78071 0.4313,-1.42795 0.7855,-2.8933 1.0104,-4.40025 -0.621,-4.61786 -1.2949,-9.21541 -1.9942,-13.80427 0.3185,0.7012 0.6095,1.40508 0.8577,2.11127 0,0 0,0.002 0,0.002 -2.8959,-19.58941 -6.5035,-38.89424 -10.7636,-57.85566 2.4812,11.96464 4.7107,24.06462 6.6931,36.27624 -2.7687,-15.56053 -5.9792,-30.9277 -9.6232,-46.05524 -2.0039,-9.27672 -4.1505,-18.4745 -6.4429,-27.57923 0.5408,1.94694 1.0888,3.88859 1.6159,5.84553 -0.7335,-7.35778 -2.4319,-15.12306 -5.4725,-22.97782 -7.8982,-28.21814 -17.1529,-55.33537 -27.5841,-81.16158 1.1384,2.82291 2.1677,5.62884 3.1154,8.41576 -1.8347,-4.79285 -3.6952,-9.55834 -5.6082,-14.26519 -0.533,-1.18597 -1.0935,-2.37629 -1.6636,-3.56826 -0.8352,-2.29193 -1.715,-4.59306 -2.6686,-6.90798 -1.0953,-2.53193 -2.2077,-5.04077 -3.3236,-7.54469 0.2269,0.48798 0.4695,0.97681 0.6915,1.46479 -10.754,-24.70724 -22.5351,-48.02014 -35.11,-69.84748 -4.2945,-8.60673 -9.2401,-17.34723 -14.8704,-26.13396 -5.2909,-9.23272 -11.2713,-18.56278 -18.0546,-27.9015 -10.9623,-17.27747 -22.387,-33.38149 -34.1111,-48.35203 -4.6601,-6.12381 -9.3656,-12.07976 -14.1216,-17.82758 -3.952,-4.91485 -8.1092,-9.82621 -12.4388,-14.72806 -11.4864,-13.77158 -24.3856,-27.50663 -38.8138,-40.97922 -12.705,-13.98957 -25.6359,-26.53857 -38.5942,-37.73323 -4.7481,-4.30887 -9.5059,-8.4486 -14.263,-12.38048 -17.3935,-14.92255 -36.5153,-29.41903 -57.3592,-43.20961 z m 338.7692,555.00453 c 0.4714,3.1879 0.9296,6.37983 1.3638,9.58173 0.2024,-3.0519 -0.2166,-6.32683 -1.3638,-9.58173 z M 1213.6924,125.12508 c 13.681,17.21747 27.0825,37.0835 40.0535,59.51381 29.6555,13.41559 56.8971,27.87292 81.5874,43.13344 -14.0097,-22.47031 -28.5841,-42.5449 -43.4994,-60.15636 -23.8658,-15.12054 -49.9618,-29.36829 -78.1415,-42.49089 z M 479.07165,150.3333 c -38.76152,10.53868 -75.25381,22.74524 -109.22124,36.33483 -13.48056,25.94821 -26.40385,54.90347 -38.62282,86.7825 35.75961,-13.36234 74.44283,-25.5479 115.85893,-36.22741 10.27571,-32.06802 20.95051,-61.03271 31.98513,-86.88992 z m 659.90215,5.04085 c 11.5002,25.89321 22.6106,54.88708 33.2726,86.9661 40.2422,11.05866 77.7132,23.52603 112.243,37.09261 -12.4057,-31.79302 -25.5583,-60.69995 -39.297,-86.63016 -32.9279,-13.87558 -68.4126,-26.44488 -106.2186,-37.42855 z m -832.78993,13.58358 c -22.49369,14.38356 -42.91408,29.50575 -61.20439,45.09628 -15.26148,17.78345 -30.13519,37.76152 -44.35512,59.88684 18.28737,-15.43853 38.98013,-30.46029 61.999,-44.82285 14.02726,-22.46531 28.62274,-42.54081 43.56051,-60.16027 z m -17.38982,0.68943 c -14.66883,12.14763 -29.34154,26.06081 -43.72479,41.84833 -16.44973,14.72155 -31.06283,29.80322 -43.92726,44.95176 14.07909,-15.99751 28.45333,-30.35965 42.83658,-43.22525 13.42482,-14.69555 28.32563,-29.31828 44.81547,-43.57484 z m 1015.55695,6.117 c 15.0394,17.65846 29.731,37.73668 43.8356,60.17199 22.0721,14.42356 41.8403,29.45657 59.2426,44.8541 -14.1906,-22.04632 -29.0424,-41.98506 -44.2882,-59.77552 -17.5109,-15.58652 -37.1218,-30.76101 -58.79,-45.25057 z m -952.36221,18.26897 c -30.96795,13.1856 -59.4551,27.44985 -85.31404,42.55339 -14.79009,25.54922 -28.83174,53.81914 -41.90253,84.6732 26.40075,-14.28457 55.69877,-27.89196 87.79531,-40.63157 12.43901,-31.77503 25.63556,-60.67081 39.42126,-86.59502 z m 910.50551,6.27911 c 14.0097,25.89421 27.3988,54.72572 39.9943,86.39775 30.8946,12.87761 59.0131,26.56028 84.2559,40.86984 -13.0963,-30.66606 -27.1883,-58.79801 -42.0458,-84.25523 -24.8292,-15.19354 -52.2751,-29.60877 -82.2044,-43.01236 z m -464.91611,15.23977 c -54.3917,0.092 -108.28321,3.13186 -160.938,8.87668 -5.81903,37.00987 -11.50399,77.587 -17.03646,121.85565 57.81466,-5.98481 117.36933,-9.28448 177.70131,-9.38448 0.09,-44.09665 0.18122,-84.49502 0.27315,-121.34589 z m 29.94129,0.24804 0.004,0.002 c 1.01515,36.85987 2.01943,77.26478 3.01991,121.36543 60.0562,1.06397 118.96138,5.27012 175.83131,11.98792 -6.1985,-44.29565 -12.6129,-84.90658 -19.1987,-121.94745 -51.98393,-6.5168 -105.44654,-10.41788 -159.65634,-11.40785 z m -590.57973,5.27914 c -0.59266,0.53998 -1.18567,1.09753 -1.77833,1.64252 0.0949,-0.111 0.18975,-0.22689 0.28461,-0.33788 -16.41648,14.74355 -30.9505,29.841 -43.67703,45.00253 -2.86355,3.4379 -5.70702,6.9648 -8.53829,10.5407 0.64547,-0.82297 1.27682,-1.6457 1.93305,-2.46868 -14.61894,17.69547 -28.82776,37.1633 -42.35331,58.39665 -8.77547,11.47165 -16.33591,22.95832 -22.83561,34.28998 -4.3804,6.82879 -8.34219,13.62705 -11.90011,20.35484 -8.974979,15.46253 -17.540959,31.70146 -25.639669,48.64695 -4.45472,9.14472 -8.772201,18.49689 -12.931578,28.0636 -2.159394,4.82485 -4.032774,9.6096 -5.682637,14.33745 -3.002419,7.46977 -5.908169,15.04705 -8.714013,22.72782 0.837157,-2.88891 1.758925,-5.80491 2.7907,-8.74582 -8.725596,22.58131 -16.575268,46.09776 -23.416284,70.44901 -3.332978,7.58377 -5.386047,15.11128 -6.4677,22.30206 -2.465504,6.27081 -3.956842,12.48454 -4.649256,18.41936 -6.201413,25.14423 -11.221128,50.96492 -15.0078917,77.26912 0.195598,-0.72098 0.419725,-1.44393 0.685737,-2.1679 -0.505619,3.40589 -0.991954,6.81998 -1.45552,10.24187 0.248409,3.06691 1.062522,5.99249 2.101144,8.7634 -0.635691,5.75383 -1.225433,11.51753 -1.75159,17.29636 -0.4176,-0.82598 -0.806487,-1.67211 -1.155628,-2.53509 0.567232,-5.92881 1.172055,-11.84958 1.856646,-17.7514 -2.402913,3.50489 -3.528957,7.27136 -3.447785,10.68326 -3.255717,28.84512 -4.99170403,58.03936 -5.17263203,87.32546 0.03423,-0.034 0.130179,-0.0799 0.280789,-0.1289 -9.78e-4,0.092 -0.0038,0.18438 -0.0038,0.27538 v 0.002 c 0.92713103,0.24198 2.31729303,0.34822 3.97498103,0.49021 0.0029,-0.43198 0.01235,-0.86289 0.01528,-1.29488 0.312955,-0.022 0.642583,-0.0425 0.976076,-0.0645 -0.0039,0.47999 -0.01333,0.96039 -0.01528,1.44137 1.790694,0.145 3.4774,0.25852 4.9033037,0.39452 0.0039,-0.69998 0.01514,-1.39861 0.02101,-2.09759 2.630784,-0.11899 5.655773,-0.23074 9.124692,-0.34374 0.235694,-37.35886 2.522166,-74.54265 6.807703,-111.16653 -2.902664,1.67695 -5.516975,3.37556 -7.858275,5.0975 1.125663,-7.78976 2.369494,-15.53475 3.715203,-23.23952 2.170152,-1.81794 4.567839,-3.61929 7.185909,-5.40022 5.055212,-35.71191 11.985546,-70.49992 20.646595,-104.03589 -1.217593,1.27596 -2.377332,2.55486 -3.510818,3.83582 0.439115,-3.3989 0.79932,-6.91681 1.168999,-10.5407 -1.727124,5.00485 -3.406526,10.05246 -5.044653,15.13431 -0.608308,0.75697 -1.196521,1.51248 -1.774511,2.26946 2.328586,-7.29678 4.741249,-14.52272 7.254673,-21.65949 0.04401,-0.421 0.09063,-0.84941 0.13562,-1.2734 1.236175,-1.61295 2.528828,-3.22389 3.881384,-4.83384 -0.895836,6.3788 -1.855714,12.42301 -3.321716,18.02484 6.23662,-19.7434 13.038715,-38.91596 20.203445,-57.5334 1.72419,-3.78188 3.253028,-7.77426 4.675998,-11.93713 0.216135,-0.43099 0.421008,-0.87452 0.632254,-1.31051 -4.825386,14.11057 -9.366132,28.54082 -13.571475,43.30337 9.988177,-10.1157 22.295121,-20.14039 36.798661,-29.99909 9.988169,-35.39592 21.583299,-68.9315 34.550419,-100.34654 -11.67031,9.48771 -22.04146,19.10875 -31.10837,28.77646 0.58582,-1.10197 1.17435,-2.1979 1.76114,-3.29287 -0.8753,1.45295 -1.76368,2.88602 -2.674179,4.28698 -0.19854,0.21399 -0.39268,0.42856 -0.59023,0.64256 2.890929,-5.37284 5.810429,-10.66812 8.752219,-15.89796 2.08604,-3.1979 4.09442,-6.51725 6.04746,-9.93914 7.87866,-8.11675 16.61214,-16.19138 26.19934,-24.17113 12.81065,-28.86212 26.72789,-55.59886 41.50331,-80.05811 -1.33495,1.18496 -2.634,2.37734 -3.94059,3.5663 3.50804,-5.36884 7.10975,-10.83549 10.84762,-16.38232 0.83813,-0.76097 1.65814,-1.52415 2.50801,-2.28313 8.84393,-13.73758 17.94749,-26.65809 27.24227,-38.75272 5.83663,-7.40878 11.98958,-14.85723 18.52253,-22.304 z m 371.32164,6.7283 c -50.30665,6.4738 -98.46491,15.2788 -144.03909,25.94648 -10.61506,37.01687 -20.68378,77.50533 -29.97758,121.46699 l 0.002,0.006 c 48.39371,-10.14369 99.96871,-18.86351 154.40345,-25.4543 6.32366,-44.29865 12.87787,-84.91316 19.61131,-121.96503 z m 406.90161,3.18154 v 0.002 c 7.4513,37.07386 14.6766,77.71311 21.5997,122.01776 53.1996,7.19778 103.4025,16.35023 150.3655,26.80191 -9.5726,-43.81966 -20.0049,-84.21611 -31.0453,-121.17598 -44.4251,-11.12066 -91.5238,-20.48986 -140.918,-27.64565 z M 253.22934,244.6644 c -23.08831,14.26356 -43.79832,29.1581 -62.05439,44.45763 -14.84877,24.63525 -28.84718,51.61076 -41.74781,80.77487 17.96562,-14.06857 38.57272,-27.8056 61.73731,-41.06319 13.09916,-30.62807 27.19656,-58.73209 42.06489,-84.16931 z m 1104.32446,6.77714 c 14.9133,25.33523 29.0392,53.28912 42.1452,83.71619 22.0878,13.2466 41.6602,26.9371 58.6352,40.91867 -12.8263,-28.91311 -26.7581,-55.68799 -41.5473,-80.17724 -17.3504,-15.25053 -37.1169,-30.14506 -59.2331,-44.45762 z m -917.41442,8.1892 c -41.92432,10.63467 -81.01025,22.71261 -117.08524,35.9032 -12.91743,36.10066 -24.83282,75.32589 -35.44055,117.52961 37.09737,-11.59797 77.53768,-22.47394 121.2837,-32.32713 9.62339,-43.78867 20.12239,-84.16281 31.24209,-121.10568 z M 287.61359,413.06355 c -0.002,6e-4 -0.004,10e-4 -0.006,0.002 l 0.004,0.006 c 6.5e-4,-0.003 0.001,-0.005 0.002,-0.008 z M 1179.4647,264.7341 c 11.4959,36.86377 22.306,77.12158 32.1629,120.73264 42.2783,10.07169 81.2633,21.06973 116.9285,32.73338 -10.6669,-41.88272 -22.6915,-80.86006 -35.7634,-116.76597 -34.8054,-13.37359 -72.6301,-25.70838 -113.328,-36.70005 z m 244.6227,31.64747 c 4.2377,4.18487 8.3075,8.38821 12.2077,12.60508 1.1384,1.39596 2.2771,2.789 3.4115,4.20495 -0.2943,-0.48798 -0.6024,-0.97972 -0.8997,-1.4687 2.1956,2.42192 4.3273,4.84724 6.4124,7.27517 1.0239,1.69794 2.0311,3.39292 3.0179,5.08187 4.976,6.4968 9.8991,13.18973 14.7578,20.07752 -3.3105,-4.19487 -6.7804,-8.38797 -10.4352,-12.57384 -0.049,-0.065 -0.098,-0.1303 -0.1471,-0.1953 0.014,0.025 0.027,0.0473 0.042,0.0723 -1.9384,-2.21794 -3.9263,-4.43235 -5.9615,-6.64628 -0.8098,-1.42996 -1.6261,-2.86365 -2.4584,-4.30261 -6.5926,-8.37274 -13.2551,-16.40236 -19.9475,-24.13012 z m -1119.82703,6.22247 c -32.26475,12.52161 -61.67104,25.84966 -88.1334,39.81323 -13.49915,34.24995 -25.72219,71.16083 -36.38224,110.49663 26.49268,-11.66765 56.0624,-22.92161 88.69879,-33.69429 10.67668,-41.81672 22.7177,-80.74167 35.81685,-116.61557 z m -138.37555,4.16979 c -2.07431,2.51592 -4.14632,5.05166 -6.20792,7.63258 -2.088,3.48589 -4.09643,6.95132 -6.04556,10.39422 -2.04106,2.21793 -4.02115,4.43896 -5.96343,6.6619 1.14425,-2.04994 2.30612,-4.1058 3.50318,-6.16974 -6.92121,9.05973 -13.73862,18.50375 -20.4212,28.31946 1.04351,-1.77796 2.08216,-3.56516 3.13643,-5.32211 -1.77407,2.32693 -3.47642,4.65333 -5.1478,6.98026 8.00776,-12.05563 16.22985,-23.5467 24.6063,-34.48137 3.96672,-4.68286 8.16058,-9.35634 12.54,-14.0152 z m 1145.01978,1.8183 c 13.2211,35.65644 25.3419,74.3115 36.0557,115.78358 31.2711,10.79167 59.5235,22.0219 84.7448,33.64155 -10.6151,-38.91181 -22.806,-75.46938 -36.2964,-109.42635 -25.2799,-13.97357 -53.4755,-27.35916 -84.5041,-39.99878 z m 155.836,40.94992 c 3.2528,4.71386 6.4743,9.51492 9.6596,14.40777 2.1907,3.80389 4.3498,7.67012 6.4926,11.568 -3.2401,-5.12484 -6.5171,-10.15739 -9.8315,-15.09524 -2.0871,-3.66889 -4.1916,-7.29864 -6.3207,-10.88053 z m -1264.23285,0.26953 c -23.12645,12.9056 -43.6688,26.25221 -61.54249,39.9148 -13.08839,31.81802 -24.8059,65.82752 -34.91144,101.76642 17.37198,-11.07566 37.45024,-21.89813 60.17865,-32.46581 10.6043,-38.82781 22.78884,-75.31345 36.27528,-109.21541 z m 1205.90135,6.15606 v 0.006 c 0,7.3e-4 0,0.001 0,0.002 -10e-4,-0.003 0,-0.005 0,-0.008 z m 0,0.008 c 13.4578,33.59869 25.5968,69.72197 36.1435,108.11973 21.5646,10.49668 40.5393,21.22958 56.855,32.19824 -10.0077,-35.48592 -21.6258,-69.09997 -34.6135,-100.57701 -16.8673,-13.56881 -36.3564,-26.85905 -58.385,-39.74096 z m -611.17282,11.6518 c -61.67379,0.101 -122.47395,3.46288 -181.38786,9.45869 -5.99603,50.57546 -11.75534,105.19625 -16.83207,163.93445 63.44688,-5.50683 129.85622,-9.17688 197.9143,-9.28487 0.0978,-58.9152 0.19823,-113.5659 0.29799,-164.10436 z m 33.99458,0.27343 c 1.10314,50.54441 2.19695,105.2052 3.28542,164.12194 67.48205,1.14596 132.67293,5.61047 194.56972,11.55629 -5.4738,-58.57221 -11.8266,-113.09741 -18.5112,-163.62587 -57.8889,-6.70479 -117.97528,-10.97239 -179.34394,-12.05236 z M 584.3733,380.55478 c 0,0 0,0.002 0,0.002 10e-4,-1.5e-4 0.003,1.5e-4 0.004,0 z m 0,0.002 c -55.23821,6.55474 -107.4292,15.13971 -156.30785,25.00118 -9.65664,49.36649 -18.17622,102.2079 -24.84315,158.28619 50.22939,-7.25078 104.34161,-14.05795 162.33621,-19.73378 5.54316,-58.53148 12.00223,-113.03568 18.81479,-163.55359 z m 456.9948,3.21865 v 0.002 c 7.419,50.43646 14.3751,104.80641 20.2244,163.09463 56.2431,5.97281 108.5853,12.88505 157.0739,20.18883 -6.7168,-55.5523 -15.3682,-107.99724 -25.2615,-157.05574 -47.3727,-10.12869 -98.1223,-19.10089 -152.0387,-26.22967 z m -931.35267,12.27696 c -1.65084,3.4169 -3.28576,6.86159 -4.90139,10.34149 -3.50217,5.90182 -6.963909,11.90011 -10.364369,18.02093 -3.15205,9.10572 -5.86464,17.89112 -8.49053,26.26286 -4.0342,10.33069 -7.90632,20.86108 -11.602129,31.59475 -0.391193,0.97497 -0.790288,1.93505 -1.178549,2.91202 1.364288,-3.99388 2.633468,-8.14272 3.881378,-12.41759 -3.922698,8.51774 -7.739901,17.19695 -11.445492,26.02068 1.173583,-3.56089 2.369769,-7.09697 3.581494,-10.61685 3.036648,-6.91179 6.140231,-13.72994 9.313798,-20.44274 1.74766,-6.14881 3.52148,-12.54519 5.47061,-19.14199 0.97505,-2.41593 1.94414,-4.83732 2.93778,-7.23025 -0.42641,0.54098 -0.82874,1.08202 -1.24732,1.623 0.57408,-1.86794 1.15848,-3.74547 1.77069,-5.64241 -1.84448,3.4859 -3.66049,7.01619 -5.46488,10.56608 -1.39069,1.90894 -2.74227,3.81749 -4.03419,5.72443 3.74764,-7.60076 7.58848,-15.06454 11.52,-22.37431 0.2044,-0.59798 0.42011,-1.2017 0.62842,-1.80268 1.48752,-2.04993 3.00646,-4.09931 4.5996,-6.14825 1.20977,-2.71292 2.439,-5.39605 3.67126,-8.07397 3.726129,-6.5178 7.512289,-12.91439 11.353819,-19.1752 z m 1387.42487,7.42556 c 4.0968,8.32274 8.0951,16.81434 11.965,25.50508 0.1046,0.14399 0.202,0.28568 0.3056,0.42967 0.8098,2.32893 1.5967,4.64445 2.3419,6.93338 2.177,4.10188 4.3177,8.26283 6.439,12.4547 -0.4724,-0.65498 -0.9294,-1.3088 -1.4135,-1.96478 1.1188,2.69692 2.2149,5.42128 3.3103,8.14819 -2.1222,-4.26888 -4.2668,-8.50434 -6.4467,-12.68321 1.067,3.45189 2.0689,6.8462 3.0352,10.1911 -1.6245,-4.10388 -3.271,-8.18441 -4.9473,-12.22229 -0.7638,-0.95597 -1.5649,-1.91208 -2.3552,-2.86905 -0.8361,-2.61192 -1.6962,-5.25453 -2.5901,-7.92945 -2.2689,-4.14687 -4.5663,-8.2349 -6.8821,-12.28477 1.3809,1.66295 2.7284,3.32518 4.038,4.98812 -0.1066,-0.23999 -0.2172,-0.47483 -0.3248,-0.71482 0.3658,0.65098 0.7364,1.29323 1.1002,1.94721 -2.266,-6.4948 -4.7726,-13.15529 -7.5755,-19.92908 z m -1386.74104,3.92957 c -2.74228,4.93085 -5.46634,9.92821 -8.17536,14.97806 2.86452,-4.75486 5.56022,-9.76522 8.17536,-14.97806 z m 291.82393,3.48817 c -44.00548,9.51571 -84.62134,19.93395 -121.83764,30.97561 -10.63952,46.36459 -19.54337,95.47378 -26.23182,146.92521 v 0.004 c 37.34735,-7.27678 78.22425,-14.33718 122.73731,-21.09897 6.72366,-55.44531 15.39679,-107.80726 25.33215,-156.80576 z m 1089.06451,0.81638 c 0.6924,1.32396 1.393,2.62875 2.1011,3.92371 -0.7003,-1.30996 -1.3989,-2.62175 -2.1011,-3.92371 z m -273.4944,3.7577 c 10.1258,48.66044 18.8927,100.58489 25.6435,155.47181 42.8466,6.77579 82.115,13.81041 117.9162,21.04819 -6.6523,-50.79545 -15.5336,-99.34225 -26.1917,-145.23385 -35.7523,-11.08166 -74.8735,-21.58945 -117.368,-31.28615 z m -956.60265,32.2451 c -32.63248,10.20569 -62.16888,20.81825 -88.62048,31.79591 -10.44099,42.42971 -18.9576,86.99388 -25.25192,133.26546 v 0.004 c 26.14941,-6.87579 55.34818,-13.58046 87.69215,-20.17126 6.64347,-50.66445 15.51921,-99.09941 26.18025,-144.89402 z m 1092.44535,4.88658 v 0.004 c 10.6611,45.30461 19.5005,93.16607 26.1019,143.16554 30.9005,6.5358 58.7237,13.17688 83.5587,19.98767 -6.2298,-45.60361 -14.6721,-89.5632 -25.0437,-131.45692 -25.1675,-10.92067 -53.3702,-21.49552 -84.6169,-31.7002 z M 62.560161,481.73919 c -1.74864,3.96487 -3.293446,7.90444 -4.662628,11.80432 1.530549,-3.96087 3.078289,-7.90244 4.662628,-11.80432 z m 96.847419,3.50575 c -22.60421,9.8987 -42.55915,20.01349 -59.815729,30.37017 -9.74368,38.23083 -17.59305,78.12939 -23.34752,119.29714 v 0.008 c 16.79692,-6.33981 36.171429,-12.4947 58.165369,-18.57952 6.21608,-45.47061 14.64198,-89.30888 24.99788,-131.0956 z m 1291.93742,4.76353 c 10.2772,41.24049 18.6212,84.4703 24.7706,129.27144 20.794,6.00882 39.0365,12.08519 54.7596,18.351 -5.6791,-40.53376 -13.4316,-79.84081 -23.0648,-117.52766 -16.1941,-10.25143 -35.0344,-20.27432 -56.4654,-30.09478 z M 90.933231,520.9919 c -14.32261,9.16772 -26.462681,18.48835 -36.29438,27.91906 -8.816549,34.14496 -15.876588,69.59188 -21.028621,105.99677 9.298696,-5.74183 20.763526,-11.27594 34.315486,-16.73777 5.66352,-40.40877 13.395865,-79.59821 23.007515,-117.17806 z m 1424.958869,4.41392 c 9.4967,37.04561 17.1302,75.6479 22.7173,115.42422 12.6023,5.37783 23.1854,10.8299 31.6469,16.48972 -5.0718,-35.8269 -12.024,-70.72321 -20.7115,-104.35618 -9.005,-9.29241 -20.2666,-18.50033 -33.6527,-27.55776 z M 42.608852,539.30384 c -2.054749,6.62479 -4.042049,13.30804 -5.948144,20.06383 0.07922,-0.15699 0.169053,-0.31369 0.250226,-0.47068 -3.382855,10.67067 -6.572206,21.50125 -9.529638,32.50292 -0.172125,1.86394 -0.282119,3.70531 -0.347644,5.52326 -1.455244,6.26181 -2.847576,12.55905 -4.169814,18.89786 -0.03619,-1.79595 -0.02093,-3.61773 0.0573,-5.46467 2.017586,-9.19972 4.160721,-18.32591 6.46388,-27.35464 -0.322736,0.71998 -0.620533,1.43816 -0.916863,2.15814 4.289449,-15.62353 9.009197,-30.92248 14.140692,-45.85602 z M 1561.4621,555.66858 c 0.7335,1.31096 1.4373,2.61974 2.0935,3.9237 2.3257,7.37277 4.5584,14.82301 6.6836,22.35478 -0.5653,-1.21196 -1.1788,-2.42936 -1.8223,-3.64832 -2.2141,-7.62477 -4.5324,-15.1704 -6.9548,-22.63016 z m -764.59638,16.72409 c -69.47324,0.10999 -136.96672,3.83135 -201.15198,8.98019 l -0.002,-0.002 c -5.04152,65.28801 -8.88724,134.12521 -9.27942,205.27303 65.4009,-0.41399 135.39232,-1.07747 210.11049,-1.18746 0.10367,-75.80269 0.21426,-146.77584 0.32282,-213.06381 z m 38.38405,0.28906 c 1.18141,66.29697 2.79984,137.26548 3.18419,212.92317 72.54215,0.38799 140.40944,0.80969 203.75364,1.22068 -0.3883,-70.15586 -4.2222,-138.26758 -9.5698,-203.0856 -62.49141,-5.48283 -128.59601,-9.90229 -197.36803,-11.05825 z m -273.2651,11.55042 c -58.30658,5.19985 -112.59545,11.23825 -162.92264,17.55806 -6.05569,60.33916 -9.61377,122.75477 -9.97661,186.22283 l 0.008,0.002 c 50.32132,-0.38399 104.6927,-0.76642 163.2741,-1.1484 0.38728,-69.95787 4.21902,-137.91641 9.61751,-202.63444 z m 1010.15503,2.27338 c 1.6372,6.4418 3.1875,12.93544 4.6779,19.46424 -0.6298,-6.26881 -2.0882,-12.84045 -4.6779,-19.46424 z m -506.7594,0.24413 c 5.6147,64.16204 9.4137,131.33481 9.7971,200.2927 56.6323,0.37799 109.1232,0.75475 157.6411,1.13474 -0.358,-62.4991 -3.8702,-124.02583 -9.9308,-183.59401 v -0.002 c -48.5541,-6.3368 -101.0267,-12.42165 -157.5055,-17.83148 z m -692.36861,18.39592 c -44.50231,5.85282 -85.34785,11.89929 -122.65901,18.0971 -5.86107,54.22135 -9.0949,109.82571 -9.4284,166.03399 l 0.004,-0.002 c 37.15566,-0.35399 77.82637,-0.70467 122.16046,-1.05466 0.35892,-62.30909 3.86352,-123.6663 9.92313,-183.07448 z m 1203.83271,0.82028 c 0.061,0.60598 0.124,1.21342 0.17,1.81441 1.1755,4.79985 2.2924,9.63121 3.3809,14.47806 -1.1325,-5.45983 -2.3176,-10.88963 -3.5509,-16.29247 z m -328.8748,1.96479 c 6.0499,58.63421 9.5118,119.09729 9.8659,180.45542 42.6353,0.34599 81.6738,0.69 117.2705,1.04099 -0.3286,-55.31531 -3.5217,-110.05687 -9.3348,-163.48524 v -0.002 c -35.7542,-6.15481 -74.9805,-12.16539 -117.7997,-18.00921 z M 231.24565,626.47891 c -32.25596,5.59383 -61.37054,11.26206 -87.45148,17.06588 -5.42272,48.15963 -8.35241,97.31902 -8.6548,146.87052 25.90295,-0.32499 54.78112,-0.64392 86.78867,-0.96091 0.32762,-55.13932 3.51424,-109.71712 9.31761,-162.97549 z m 1152.82845,2.6757 c 5.7505,52.4714 8.8964,106.19769 9.2201,160.45603 30.5523,0.31299 58.0467,0.62625 82.6342,0.94724 -0.2973,-48.73551 -3.1865,-97.1008 -8.5459,-144.50535 v -0.004 c -24.7656,-5.74583 -52.5009,-11.35319 -83.3084,-16.89402 z m -1253.43882,17.3979 c -21.87854,5.12084 -41.144749,10.28974 -57.869294,15.62257 -4.910042,42.49985 -7.541542,85.75456 -7.812432,129.27926 16.564157,-0.296 35.563896,-0.58122 57.154906,-0.86521 0.29731,-48.57551 3.18017,-96.78606 8.52682,-144.03662 z m 1349.20512,2.46282 c 5.2821,46.50458 8.1245,93.93007 8.4179,141.70661 20.3842,0.27999 38.2472,0.5615 53.7434,0.85349 -0.267,-42.78969 -2.8577,-85.32802 -7.6997,-127.13675 -15.6517,-5.27083 -33.786,-10.37051 -54.4616,-15.42335 z M 64.506583,664.88594 c -13.417976,4.56986 -24.763277,9.19497 -33.998404,14.03082 -4.370622,37.36686 -6.702738,75.31864 -6.943323,113.45748 9.138307,-0.27099 20.175588,-0.52148 33.263005,-0.77147 0.26699,-42.6457 2.850402,-85.0421 7.678722,-126.71683 z m 1477.462617,2.23235 c 4.7589,40.98575 7.3029,82.67209 7.566,124.59581 12.1271,0.24599 22.274,0.49174 30.5908,0.75974 -0.2367,-37.48585 -2.5295,-74.79478 -6.8287,-111.53566 -8.4,-4.76985 -18.8627,-9.32302 -31.3281,-13.81989 z m 40.8291,0.35741 c 0.4254,0.43499 0.8273,0.86962 1.2263,1.3066 1.2685,7.42878 2.4355,14.89776 3.4917,22.40753 -0.3746,-0.36799 -0.7661,-0.73359 -1.1671,-1.09958 -1.0797,-7.57777 -2.256,-15.11978 -3.5509,-22.61455 z M 16.300632,668.54403 c -1.273338,7.44177 -2.442064,14.92671 -3.503179,22.45048 -0.40293,0.38999 -0.805005,0.78081 -1.17664,1.1738 1.032754,-7.43978 2.179,-14.83877 3.421043,-22.19854 0.406842,-0.47599 0.81966,-0.95176 1.258776,-1.42574 z m -7.9461407,13.43319 c -0.546694,2.01193 -0.83054,4.00484 -0.846188,5.91778 0.269924,-1.97694 0.562572,-3.94485 0.846188,-5.91778 z M 1599.8997,793.76481 c 0,0.067 9e-4,0.13222 0,0.19922 0.133,-0.038 0.1302,-0.11322 0,-0.19922 z M 0.01677327,793.83711 c -0.02054,0.019 -0.02342,0.0349 -0.0019,0.0469 0,-0.016 9.32e-4,-0.0309 0.0019,-0.0469 z M 1589.3671,809.79557 c -0.028,2.03894 -0.073,4.07616 -0.1183,6.1131 -1.6401,0.19999 -3.4275,0.39674 -5.3923,0.59373 -0.6474,36.68188 -3.3026,73.12929 -7.9118,108.97519 1.3154,-0.89997 2.5491,-1.8086 3.7305,-2.72258 -1.2323,7.80777 -2.5744,15.57355 -4.0227,23.29031 -0.9487,0.82198 -1.9242,1.64102 -2.9531,2.455 -3.0454,19.8724 -6.7016,39.42465 -10.9031,58.62708 -2.3501,8.8438 -4.8178,17.6023 -7.4017,26.259 -1.775,6.2508 -2.742,13.13 -3.6369,20.4408 0.6083,-1.7439 1.2037,-3.4989 1.8013,-5.2517 0.5691,-0.6801 1.138,-1.361 1.6847,-2.043 -1.3075,3.8589 -2.6327,7.7034 -3.9921,11.5153 -0.3012,2.5499 -0.6102,5.1526 -0.9417,7.7985 -1.242,1.652 -2.5192,3.3031 -3.8757,4.9511 -0.1946,0.653 -0.3984,1.2953 -0.594,1.9472 -4.3168,11.3797 -8.8492,22.5143 -13.5543,33.413 1.0816,-3.1999 2.1529,-6.4123 3.2033,-9.6462 3.9335,-9.5177 7.7365,-19.2046 11.3805,-29.0713 1.1971,-7.5938 2.4845,-14.7405 4.5882,-21.2123 -3.2391,10.3067 -6.6302,20.4504 -10.1294,30.4561 -9.1608,10.0877 -20.489,20.1215 -33.8991,29.9972 -10.1828,34.4459 -21.9257,67.0522 -34.9955,97.5673 7.6997,-6.6718 14.7674,-13.4056 21.2387,-20.1654 -1.2801,2.384 -2.5629,4.7591 -3.8489,7.117 1.4249,-2.6209 2.8836,-5.1795 4.3818,-7.6815 0.035,-0.037 0.07,-0.074 0.1051,-0.1112 -2.398,4.3678 -4.8094,8.6905 -7.2299,12.9664 -0.3266,0.6319 -0.6503,1.2759 -0.976,1.9139 -0.7218,1.174 -1.438,2.3576 -2.1451,3.5566 -0.9917,1.7839 -1.9852,3.5356 -2.9779,5.3045 -0.052,0.053 -0.1029,0.1052 -0.1547,0.1582 0.055,-0.098 0.1095,-0.1989 0.1643,-0.2969 -0.062,0.107 -0.1237,0.2114 -0.1853,0.3184 -5.2548,5.3439 -10.85,10.6678 -16.8226,15.9526 -7.9109,17.1995 -16.2289,33.608 -24.889,49.2075 -2.5114,3.6009 -5.0207,7.2791 -7.5507,11.029 1.6851,-2.1859 3.3728,-4.3952 5.0637,-6.6151 -0.7667,1.358 -1.5339,2.7174 -2.3055,4.0624 -2.3022,2.9329 -4.6002,5.8408 -6.8956,8.7107 -7.7799,11.6237 -15.8758,23.8496 -24.7266,36.4032 12.7705,-13.4606 25.5964,-27.9375 38.1988,-43.614 3.8836,-4.1528 7.6041,-8.3169 11.1532,-12.4878 -2.2757,3.0169 -4.5581,6.0081 -6.8554,8.943 -1.8268,3.0789 -3.7239,6.177 -5.6731,9.283 -2.0997,2.3959 -4.2681,4.7866 -6.4735,7.1755 1.2245,-1.9349 2.4307,-3.8668 3.6103,-5.7908 -4.8156,5.8868 -9.665,11.5983 -14.5305,17.1421 -2.9916,2.9889 -6.0449,5.9712 -9.2067,8.9391 -1.1081,1.67 -2.2269,3.3051 -3.3428,4.9491 -3.9882,4.2978 -7.9797,8.5025 -11.9669,12.5934 -0.1995,0.276 -0.4051,0.5531 -0.6056,0.8301 2.3178,-3.3389 4.6243,-6.713 6.9109,-10.1599 -17.4229,15.4545 -37.1874,30.537 -59.2332,45.0006 -14.1319,21.7923 -28.8199,41.2472 -43.8222,58.3087 19.7201,-13.1956 37.7287,-26.9687 54.0376,-41.1042 -3.6362,3.9888 -7.3678,7.972 -11.2201,11.9469 -15.859,13.5816 -33.2715,26.8132 -52.223,39.4988 -13.9529,14.8225 -28.1354,27.6068 -42.2692,38.4285 20.7636,-13.7016 39.8354,-28.1056 57.2103,-42.9362 6.2885,-5.0498 12.581,-10.4422 18.8587,-16.146 11.3437,-9.8127 22.6675,-20.649 33.8322,-32.5967 12.9417,-12.0526 24.6672,-24.318 35.2744,-36.6317 5.6684,-6.2328 11.0499,-12.4876 16.1139,-18.7474 6.1985,-7.3028 12.3258,-14.9405 18.3697,-22.8743 10.2806,-13.1136 20.3321,-27.1004 30.0445,-41.9909 6.2112,-8.5237 11.784,-17.0428 16.7747,-25.4855 6.307,-9.6087 11.807,-19.1696 16.555,-28.5734 12.6846,-21.4473 24.6119,-44.3842 35.5438,-68.7245 -0.8812,1.922 -1.8206,3.8549 -2.7869,5.7909 1.8533,-3.9579 3.6903,-7.9385 5.4898,-11.9723 0.7344,-1.765 1.4217,-3.5214 2.0896,-5.2733 0.7961,-1.626 1.5703,-3.2491 2.2999,-4.8651 1.5227,-3.6249 3.0139,-7.2837 4.4907,-10.9606 -0.6163,1.6609 -1.2524,3.3269 -1.9331,4.9998 10.6356,-25.4862 20.1287,-52.2813 28.289,-80.2084 3.0963,-8.0108 4.8822,-15.9191 5.7399,-23.4329 2.5154,-9.8637 4.8561,-19.83763 7.0331,-29.90733 3.6919,-15.31352 6.9361,-30.87758 9.7322,-46.6431 -1.9814,12.24463 -4.2063,24.37444 -6.6874,36.36607 3.5149,-15.67752 6.5885,-31.59087 9.1762,-47.71338 -0.2787,0.78098 -0.5914,1.56084 -0.9455,2.33782 0.843,-5.09284 1.6529,-10.19972 2.3991,-15.33156 -0.1868,-1.50696 -0.4803,-2.97697 -0.848,-4.41393 0.7413,-5.92782 1.4151,-11.87462 2.038,-17.83344 0.312,0.86197 0.5878,1.74166 0.8176,2.63664 -0.5516,5.03984 -1.1311,10.07153 -1.7688,15.08938 2.0167,-3.81189 2.742,-7.82007 2.4164,-11.44496 3.4581,-28.06415 5.4567,-56.49683 5.9653,-85.05796 -0.1,0.133 -0.2496,0.2684 -0.4413,0.40038 v -0.004 c 0.01,-0.45898 0.025,-0.91792 0.033,-1.37691 -1.1061,-0.58098 -2.667,-0.94277 -4.401,-1.34175 -0.02,1.33095 -0.059,2.66014 -0.088,3.9901 -0.3188,0.058 -0.6529,0.11588 -0.9932,0.17188 0.031,-1.46096 0.073,-2.92072 0.095,-4.38268 -1.7555,-0.38799 -3.3508,-0.69411 -4.5901,-1.0781 z M 10.209227,809.96745 c -1.4141677,0.37899 -3.1041747,0.70626 -4.8880227,1.11325 0.02152,1.35095 0.06142,2.69969 0.08978,4.05065 -0.33545,-0.06 -0.664985,-0.11963 -0.979897,-0.18163 -0.02543,-1.21397 -0.06258,-2.42751 -0.08214,-3.64247 -1.658666,0.40199 -3.106942,0.74793 -3.95779103,1.37691 0.0049,0.30099 0.01515,0.60228 0.02101,0.90427 -0.147676,-0.119 -0.24144,-0.23183 -0.290339,-0.33983 0.507575,29.18311 2.55841303,58.2307 6.11241603,86.89383 -0.02738,3.56989 1.046628,7.45879 3.293063,11.16567 -0.362833,1.64095 -0.626935,3.32086 -0.73158,5.04281 0.561365,3.83488 1.155538,7.65748 1.7706907,11.47036 -0.28166,-0.75598 -0.540322,-1.51158 -0.7545007,-2.26556 4.0381067,25.82021 9.2678597,51.13596 15.6286837,75.76919 0.790213,6.2568 2.394203,12.8055 5.008361,19.4193 1.217593,7.0978 3.322724,14.4948 6.580398,21.9506 7.399446,25.2222 15.876114,49.5094 25.286301,72.7457 -1.186298,-3.1129 -2.254091,-6.2014 -3.226209,-9.2633 3.05523,7.9928 6.205813,15.8803 9.474244,23.6321 1.31637,3.4539 2.744155,6.9343 4.322625,10.4352 3.020026,6.7318 6.125091,13.3469 9.292791,19.8627 9.33586,19.5764 19.296819,38.2008 29.780829,55.7893 4.00877,7.5037 8.51834,15.0953 13.52563,22.7181 6.25227,10.5696 13.41108,21.2597 21.59976,31.9384 12.21994,18.6554 24.96762,35.879 38.0345,51.7015 3.67234,4.586 7.37271,9.0598 11.09786,13.4157 3.40926,4.0399 6.95394,8.0744 10.6165,12.0992 12.62483,14.6486 26.85337,29.225 42.79455,43.4616 13.05808,13.9206 26.32968,26.298 39.59509,37.2547 4.47722,3.9008 8.95951,7.6506 13.43967,11.2125 18.00669,14.7986 37.73384,29.1159 59.16055,42.6764 -13.99499,-10.6777 -28.04244,-23.3493 -41.86432,-38.0808 -22.26582,-14.2606 -42.54644,-29.2708 -60.79371,-44.7603 3.05621,3.2469 6.12626,6.3896 9.20301,9.4665 -7.0151,-6.8338 -13.70896,-13.712 -20.06782,-20.6088 -10.04784,-8.7827 -20.10536,-18.3025 -30.07692,-28.5772 6.86938,7.0068 14.12037,13.9662 21.79268,20.847 -1.60097,-1.8149 -3.19653,-3.6672 -4.7887,-5.5291 1.99901,1.8359 3.9988,3.6535 5.99781,5.4334 -12.27373,-13.8456 -23.28266,-27.7023 -33.30311,-41.2839 -0.84107,-0.845 -1.68315,-1.7066 -2.52519,-2.5605 -1.55109,-2.194 -3.09658,-4.4004 -4.63398,-6.6423 0.62983,0.654 1.2593,1.3177 1.88912,1.9667 -6.13002,-8.5277 -11.88535,-16.921 -17.40511,-25.1047 0.32567,0.292 0.6389,0.586 0.96652,0.877 -14.86246,-23.8714 -28.90931,-50.0193 -41.88915,-78.3005 -8.70701,-7.3187 -16.69592,-14.7168 -24.01224,-22.1536 -0.2308,-0.401 -0.46257,-0.7992 -0.69338,-1.2011 -2.19753,-3.8859 -4.45126,-7.652 -6.78669,-11.2829 -2.37944,-4.1399 -4.74692,-8.3263 -7.09995,-12.5562 0.38043,0.405 0.77412,0.8089 1.15945,1.2128 0.10171,0.17 0.20391,0.3407 0.30562,0.5117 -0.0831,-0.151 -0.1671,-0.3021 -0.25023,-0.4531 8.54565,8.9698 18.15694,17.8956 28.86589,26.7043 -13.17837,-30.839 -25.02993,-63.825 -35.3164,-98.708 -14.589599,-10.1706 -26.973849,-20.5157 -37.041242,-30.9404 3.101195,10.4167 6.377221,20.6499 9.789416,30.7296 -0.725666,-1.739 -1.474177,-3.4444 -2.267324,-5.1054 -6.660089,-17.0355 -13.015229,-34.5655 -18.94085,-52.557 0.149632,0.162 0.29063,0.3253 0.44124,0.4883 -8.98574,-33.185 -16.273955,-67.66863 -21.708628,-103.13554 -2.470393,-1.79395 -4.734325,-3.60944 -6.809613,-5.43538 -1.456222,-7.70377 -2.801793,-15.45548 -4.039925,-23.25124 2.265018,1.78094 4.780063,3.54309 7.552655,5.28303 -4.686512,-36.44688 -7.387284,-73.51959 -8.045469,-110.83645 -3.456204,-0.31799 -6.476853,-0.63183 -9.101769,-0.96482 -0.04303,-1.96494 -0.08816,-3.93131 -0.116518,-5.89825 z m 1589.591073,2.73624 c 0,0.23499 -0.011,0.47102 -0.015,0.70701 0.2053,-0.27499 0.2225,-0.53802 0.015,-0.70701 z M 0.11992127,812.93611 c -0.05379,0.085 -0.04121,0.1841 0.0057,0.2871 -0.002,-0.096 -0.0038,-0.1911 -0.0057,-0.2871 z M 1580.0458,816.87349 c -8.3178,0.75198 -18.4731,1.44571 -30.608,2.13469 -0.7325,41.86972 -3.7384,83.41415 -8.9394,124.1759 12.529,-4.91785 23.0459,-9.90231 31.4732,-15.09915 4.7022,-36.56688 7.414,-73.76473 8.0742,-111.20559 z M 23.706206,817.18598 c 0.671876,38.09184 3.428408,75.92605 8.207828,113.10591 9.261533,5.27084 20.662076,10.33082 34.141665,15.32767 -5.276238,-41.43574 -8.329848,-83.68199 -9.073118,-126.26569 -13.094262,-0.70298 -24.138069,-1.40891 -33.276375,-2.16789 z m 1518.102494,2.23821 c -15.4991,0.82198 -33.3667,1.61043 -53.7568,2.39641 -0.8185,47.69254 -4.1751,94.92019 -9.9384,141.11678 20.7304,-5.51082 38.9133,-11.07783 54.5973,-16.82566 v -0.002 c 5.2909,-41.57073 8.3517,-83.95788 9.0979,-126.68558 z M 65.108274,819.77183 c 0.756962,43.46067 3.863581,86.56268 9.227839,128.81639 16.757798,5.81682 36.075477,11.45666 58.006827,17.04048 -5.83271,-46.93456 -9.23514,-94.93679 -10.06448,-143.4253 -21.59687,-0.79798 -40.603099,-1.5996 -57.170186,-2.43157 z m 1410.587126,2.51164 c -24.5915,0.90098 -52.0913,1.78111 -82.6495,2.66008 -0.9036,54.13435 -4.6077,107.57781 -10.8629,159.61622 30.8516,-6.0208 58.6252,-12.12539 83.4231,-18.3842 5.8464,-47.08256 9.258,-95.23972 10.0893,-143.88624 z m -1340.37647,0.43554 c 0.84302,49.46149 4.29673,98.40522 10.20964,146.23576 26.11224,6.31981 55.26808,12.4861 87.56609,18.5619 v -0.01 c -6.30801,-52.81336 -10.05737,-107.08631 -10.97179,-162.09463 -32.01341,-0.89097 -60.89708,-1.78326 -86.80394,-2.69523 z m 1239.54647,2.72843 v 0.006 c -35.5968,0.98397 -74.6398,1.95477 -117.2801,2.92374 -0.9867,61.15213 -5.0386,121.16646 -11.5696,179.15462 42.8338,-6.3008 82.0831,-12.80983 117.8588,-19.48963 6.3188,-52.96733 10.0765,-107.40628 10.9929,-162.59459 z m -1133.74628,0.40038 c 0.92713,56.07429 4.73018,111.3562 11.09785,165.09455 37.32869,6.7206 78.19032,13.26223 122.70484,19.56193 -6.53075,-58.73203 -10.6266,-119.60474 -11.62314,-181.7015 -44.34289,-0.97997 -85.019,-1.96101 -122.17955,-2.95498 z m 133.80269,184.65648 c 1.5e-4,0 -1.5e-4,0 0,0 h 0.004 c -0.001,-2e-4 -0.003,2e-4 -0.004,0 z M 1232.6313,828.8946 c -48.516,1.06697 -101.0173,2.12367 -157.6525,3.17763 -1.0641,68.55491 -5.3902,134.91495 -11.308,198.03297 v 0 c 56.3779,-5.6968 108.8001,-12.1964 157.3278,-19.0092 6.529,-58.87919 10.6351,-119.9253 11.6346,-182.2034 z m -843.33194,0.52929 c 1.00928,63.23506 5.15853,125.1364 11.66898,184.73461 50.28709,6.7798 104.49772,13.204 162.67814,18.6499 h -0.002 C 557.98683,969.20229 553.6643,902.13264 552.59439,832.63477 494.00713,831.5718 439.62647,830.50285 389.29928,829.42589 Z m 652.66274,3.27138 c -63.3471,1.14396 -131.21696,2.4335 -203.72488,3.26748 -0.81662,74.25373 -2.16146,143.76402 -3.337,208.64205 h -0.002 c 68.16469,-1.152 133.84746,-5.602 196.07678,-11.3259 5.597,-63.69402 9.9152,-130.89776 10.987,-200.58563 z m -455.29473,0.51756 c 1.07774,70.61684 5.35162,138.45436 10.59167,202.55247 63.85372,5.3378 130.84543,9.0372 199.64678,9.1462 h -0.002 c -0.10758,-64.88103 -0.21431,-134.39737 -0.32091,-208.68509 -74.52845,-0.11301 -144.51768,-1.85872 -209.91564,-3.00968 z M 8.7040443,889.8986 c 0.581902,5.79982 1.236818,11.58311 1.9292317,17.35494 -0.355009,1.09496 -0.6774087,2.21154 -0.9512447,3.34951 -0.752071,-5.96382 -1.42925,-11.947 -2.06103,-17.94282 0.323714,-0.93897 0.688915,-1.86066 1.083043,-2.76163 z m 4.4486937,26.24529 c 0.391195,0.43598 0.791374,0.87261 1.214842,1.3066 1.169672,7.53877 2.439297,15.03782 3.82217,22.48759 -0.444984,-0.49999 -0.873739,-1.00092 -1.287427,-1.5019 -1.352556,-7.38678 -2.606319,-14.81852 -3.749585,-22.29229 z m 1578.139862,0.56639 c -0.5252,3.58389 -1.0763,7.15744 -1.6484,10.72233 1.2998,-3.64289 1.8098,-7.30244 1.6484,-10.72233 z m -5.3598,0.51951 c -1.1648,7.52277 -2.4242,15.0089 -3.8012,22.44268 -0.4205,0.47898 -0.8481,0.95556 -1.297,1.43354 1.4103,-7.52277 2.7208,-15.08866 3.9139,-22.70242 0.402,-0.39099 0.8077,-0.78181 1.1843,-1.1738 z M 8.7537083,918.64967 c 0.0489,2.22493 0.396023,4.54072 1.062032,6.88065 -0.358921,-2.29193 -0.72267,-4.58072 -1.062032,-6.88065 z M 1568.6652,951.54905 c -8.4997,6.06982 -19.1433,11.94502 -31.817,17.73384 -6,39.45781 -14.0161,77.67191 -23.8556,114.27581 13.4747,-9.3917 24.8174,-18.936 33.899,-28.5557 9.0127,-33.2809 16.3215,-67.87233 21.7736,-103.45395 z M 35.270133,954.1232 c 5.538338,36.15097 12.959805,71.2824 22.105935,105.0573 9.905048,9.7617 22.123543,19.4223 36.531243,28.923 -9.95569,-37.1233 -18.072579,-75.9106 -24.1536,-115.98475 C 56.131336,966.24193 44.605993,960.28301 35.270133,954.1232 Z M 1528.9956,972.7281 c -15.7612,6.72277 -34.0617,13.25177 -54.9162,19.70057 -6.5897,44.36863 -15.3292,87.08433 -25.9492,127.74613 21.4952,-10.1487 40.4005,-20.5176 56.6526,-31.1163 9.9784,-37.2288 18.1161,-76.1297 24.2128,-116.32649 z m 51.5047,2.45109 c -1.7291,7.71378 -3.555,15.37728 -5.5011,22.96808 -0.088,1.012 -0.2033,2.03343 -0.3324,3.06043 2.0704,-8.60173 4.0223,-17.27683 5.8335,-26.02851 z m -5.8335,26.02851 c -1.5364,6.3858 -3.1286,12.7387 -4.8059,19.0365 2.5144,-6.4698 4.0333,-12.8827 4.8059,-19.0365 z M 78.099061,975.65965 c 6.17599,40.82485 14.41327,80.30405 24.503149,118.05695 17.31134,10.7047 37.32568,21.161 59.98954,31.3857 -10.69602,-41.1801 -19.51549,-84.4828 -26.17451,-129.50383 -22.05262,-6.5278 -41.483119,-13.137 -58.318179,-19.93882 z m -53.325093,15.25142 c 1.410257,6.4168 2.892946,12.79163 4.439143,19.12443 0.089,1.429 0.197965,2.8663 0.349554,4.3222 3.353516,11.9617 6.974281,23.7178 10.828526,35.2704 -0.380436,-0.7189 -0.769965,-1.4392 -1.128886,-2.1562 1.039599,3.5309 2.101601,7.042 3.182276,10.5349 -3.923682,-11.4407 -7.602042,-23.0994 -11.036731,-34.952 0.117358,0.2719 0.221621,0.5443 0.341914,0.8163 -2.399979,-8.9807 -4.641632,-18.0669 -6.759951,-27.22763 -0.133984,-1.937 -0.203131,-3.8484 -0.215845,-5.7324 z m 1436.740632,5.2968 c -24.8702,7.29773 -52.7383,14.40803 -83.6828,21.39383 -7.0445,49.3985 -16.2571,96.5655 -27.2213,141.1071 31.2613,-10.4927 59.4917,-21.3887 84.6856,-32.6494 10.7097,-41.2826 19.5457,-84.7003 26.2185,-129.85153 z m -1311.85442,3.162 c 6.73833,45.80063 15.64732,89.80463 26.42474,131.60543 26.47312,11.3136 56.02798,22.2419 88.66632,32.7256 -10.95423,-45.0052 -20.19506,-92.7167 -27.28047,-142.7536 -32.38505,-7.0378 -61.62696,-14.2137 -87.81059,-21.57743 z m 1209.85342,22.23563 v 0 c -35.8139,7.7238 -75.0963,15.2121 -117.9448,22.3919 -7.1413,54.0284 -16.188,105.0162 -26.5126,152.6847 42.3957,-9.8847 81.458,-20.6342 117.1731,-32.0029 10.9515,-45.0956 20.1957,-92.9152 27.2881,-143.0757 z m -1102.89378,3.4648 c 7.12561,50.7894 16.38511,99.1404 27.30531,144.685 37.16544,11.3166 77.70502,21.9637 121.59315,31.6494 h 0.004 c -10.11531,-47.9845 -19.04665,-99.3669 -26.14585,-153.9152 -44.50915,-7.1518 -85.39342,-14.6595 -122.75642,-22.4173 z m 1310.56498,1.2637 c -2.265,7.6097 -4.6382,15.1337 -7.1076,22.5735 -0.7237,1.3899 -1.4796,2.7826 -2.2844,4.1795 2.5838,-7.5597 5.074,-15.2029 7.4457,-22.9427 0.6894,-1.2739 1.3351,-2.5434 1.9463,-3.8103 z M 44.293588,1044.5697 c 0.594616,0.771 1.216477,1.5414 1.839455,2.3124 1.190209,3.5089 2.395073,7.0044 3.627336,10.4743 -0.289484,-2.4479 -0.579166,-4.8432 -0.88821,-7.1932 0.865518,1.004 1.756922,2.0059 2.670362,3.0078 1.313436,5.5639 2.267966,11.5058 3.218568,17.7416 -1.385807,-1.683 -2.70942,-3.3676 -3.97689,-5.0526 -0.17506,-1.3989 -0.346681,-2.789 -0.510005,-4.1619 -2.051815,-5.6569 -4.043226,-11.3686 -5.980616,-17.1284 z m 1172.235312,3.537 c -48.4347,7.7137 -100.6938,14.9638 -156.7911,21.1516 -6.0498,57.1053 -13.0796,110.266 -20.5377,159.5245 53.5819,-7.1668 104.0773,-16.2318 151.2651,-26.5246 10.0694,-48.0426 18.9753,-99.5013 26.0637,-154.1456 z m -811.13096,3.3905 c 7.02194,55.1323 15.77312,106.9563 25.58428,155.2648 48.65175,10.0064 100.55576,18.6637 155.42919,25.2395 -6.83515,-49.3165 -13.34416,-102.5973 -19.04973,-159.8955 -57.80683,-5.8519 -111.80281,-12.9661 -161.96374,-20.6088 z m 621.93836,21.1478 c -61.56527,6.1128 -126.28767,10.5784 -193.14282,11.7184 -1.08166,57.5892 -2.16716,110.9561 -3.26251,160.2646 60.74275,-1.072 120.27249,-5.3102 177.68023,-12.0249 v 0 c 6.7031,-49.3255 13.1005,-102.6278 18.7289,-159.9561 z m -426.67723,2.6347 c 5.19213,57.4722 10.97249,110.8358 16.97341,160.1943 58.39143,5.9937 118.59762,9.3273 179.63245,9.4275 -0.0988,-49.3025 -0.19636,-102.6669 -0.29416,-160.2451 -67.39697,-0.107 -133.26091,-3.7469 -196.3117,-9.3767 z m -534.790565,23.6281 c 4.572088,10.8927 9.318409,21.5579 14.215186,31.9816 -0.0528,-0.174 -0.10856,-0.3437 -0.16235,-0.5157 3.88553,10.6316 7.93414,21.0677 12.15415,31.2764 1.89338,5.7498 3.8707,11.6633 6.03792,17.7221 2.327609,4.0969 4.682449,8.1336 7.056019,12.1305 1.60487,3.4569 3.22786,6.8802 4.86892,10.2751 -3.25278,-5.2998 -6.47073,-10.6797 -9.64234,-16.1655 0.45281,1.2099 0.91923,2.4283 1.38867,3.6483 -1.00831,-2.135 -2.021479,-4.2628 -3.016099,-6.4217 -1.31343,-1.698 -2.58106,-3.3956 -3.82408,-5.0936 -0.61417,-1.6649 -1.21464,-3.3236 -1.79361,-4.9705 -2.95156,-5.3589 -5.85447,-10.8059 -8.71019,-16.3257 1.3682,1.9349 2.80025,3.8696 4.26723,5.8045 0.77945,1.462 1.55459,2.9307 2.33991,4.3807 -0.25819,-0.7739 -0.506,-1.5395 -0.75832,-2.3085 0.19657,0.253 0.38121,0.5048 0.57876,0.7578 -0.49193,-1.146 -0.96941,-2.3108 -1.45742,-3.4628 -2.85866,-8.9127 -5.33979,-17.4988 -7.78378,-25.6496 -4.17893,-8.6627 -8.246982,-17.5024 -12.200003,-26.5031 -1.203902,-3.4999 -2.391835,-7.0184 -3.558573,-10.5603 z m 1432.320595,13.5973 c -16.3745,11.2907 -35.4122,22.3419 -57.0365,33.1396 -10.8341,37.7589 -23.2064,73.211 -36.8502,106.116 22.0604,-13.0616 41.59,-26.5476 58.5092,-40.3192 13.1969,-30.9031 25.0705,-63.9664 35.3775,-98.9364 z m -1435.867706,2.9003 c 1.075785,2.8239 2.235709,5.6644 3.503178,8.5193 -1.18434,-2.8209 -2.348176,-5.6654 -3.503178,-8.5193 z m 46.958636,2.0469 c 10.4048,35.4049 22.37595,68.8452 35.67168,100.0672 17.91867,13.8616 38.49291,27.4016 61.63989,40.4812 -13.6654,-33.186 -26.0798,-68.9813 -36.96674,-107.1472 -22.78318,-10.8646 -42.91808,-22.0046 -60.34483,-33.4012 z m 1411.07607,25.3859 c -1.7105,4.2579 -3.4484,8.4807 -5.2166,12.6656 -2.1163,4.0799 -4.2526,8.1279 -6.4218,12.1207 -1.333,3.9609 -2.7597,7.9844 -4.2883,12.0563 -4.5261,9.7427 -9.2019,19.2444 -14.0145,28.5011 3.5148,-7.7748 6.6115,-15.4167 9.3959,-22.8685 0.2083,-0.449 0.4211,-0.8898 0.6284,-1.3398 -0.078,0.1 -0.1624,0.2017 -0.2407,0.3027 0.4841,-1.3049 0.9614,-2.6063 1.4269,-3.8983 -1.4474,2.541 -2.9063,5.0584 -4.3723,7.5603 -0.8343,1.022 -1.6894,2.0425 -2.5501,3.0644 0.4939,-1.1569 0.9884,-2.3174 1.4842,-3.4784 2.5575,-4.3618 5.091,-8.7766 7.5947,-13.2555 0.4948,-1.4279 0.9783,-2.8467 1.4555,-4.2576 1.0572,-1.277 2.1089,-2.5531 3.1212,-3.83 1.2136,-2.8229 2.4038,-5.6769 3.591,-8.5349 -0.4107,1.316 -0.8295,2.6397 -1.2569,3.9706 3.2851,-6.1548 6.5026,-12.4229 9.6634,-18.7787 z m -92.0931,9.0661 c -25.2428,11.9267 -53.5137,23.4445 -84.7888,34.4892 -10.9505,40.6597 -23.2438,78.4804 -36.5904,113.2973 30.969,-12.7586 59.131,-26.2947 84.3953,-40.4344 13.6683,-33.2408 26.0872,-69.1015 36.9839,-107.3463 z m -1245.10487,5.2167 c 10.9378,38.6458 23.38143,74.8383 37.0527,108.3462 26.43486,14.122 55.79178,27.5903 87.97867,40.2214 -13.21215,-35.0022 -25.41473,-73.0683 -36.31729,-114.0472 -32.62857,-11.0167 -62.20674,-22.5508 -88.71408,-34.5204 z m 125.03137,148.5676 c 10e-4,0 0.003,0.01 0.004,0.01 v -0.01 c -10e-4,-5e-4 -0.002,0 -0.004,0 z M 107.19799,1184.0029 c 2.11538,3.8599 4.23921,7.6883 6.37219,11.4782 -2.06258,-3.9519 -4.17661,-7.7823 -6.37219,-11.4782 z m 1217.88171,8.6932 c -7e-4,0 0,0.01 0,0.01 0,-9e-4 0.01,0 0.01,0 z m 0,0.01 c -35.6046,11.9096 -74.5069,23.1139 -116.6669,33.3369 -9.9921,42.6106 -20.8777,81.8741 -32.4131,117.7561 40.4848,-11.0287 78.1455,-23.4316 112.82,-36.9032 13.1833,-35.0377 25.3687,-73.1531 36.26,-114.1898 z m -1034.06418,5.3279 c 10.82239,41.3367 22.88954,79.681 35.91045,114.8969 35.92926,13.2786 74.82641,25.4134 116.51602,36.0731 v 0 c -11.14807,-35.9529 -21.70666,-75.3168 -31.44838,-118.0765 -43.60353,-9.9887 -83.94956,-21.056 -120.97809,-32.8896 z m 1191.88678,24.2044 c -2.1516,3.9138 -4.3265,7.7822 -6.525,11.6011 -3.1521,4.8399 -6.3369,9.5925 -9.5545,14.2574 2.09,-3.5189 4.1542,-7.0901 6.2041,-10.693 3.3291,-4.9588 6.6216,-10.0167 9.8754,-15.1655 z m -28.6233,8.4645 c -17.0219,14.1596 -36.6272,28.022 -58.7365,41.4245 -13.2439,29.7351 -27.4683,56.9977 -42.4374,81.6479 22.0976,-14.3705 41.8678,-29.3352 59.2427,-44.6607 14.8762,-23.8973 28.9367,-50.0826 41.9312,-78.4117 z m -270.3217,1.0977 c -2e-4,0 3e-4,0 0,0 0,-5e-4 0,0 0.01,0 z m 0,0 c -46.7372,10.5781 -96.6644,19.7953 -149.5097,27.0127 -6.9329,43.1727 -14.1414,82.7188 -21.5672,118.7367 48.9727,-7.1298 95.7121,-16.4837 139.833,-27.6163 11.0665,-35.9619 21.5563,-75.3429 31.2439,-118.1331 z m -746.72324,4.6131 c 9.39259,42.9147 19.50448,82.3721 30.13421,118.387 45.25046,10.6697 93.01713,19.4528 142.8739,25.8976 h 0.004 c -6.70508,-35.9909 -13.23514,-75.5076 -19.55783,-118.6662 -54.04353,-6.5978 -105.30783,-15.3628 -153.45411,-25.6145 z m -283.70397,0.5742 c 13.06493,28.5631 27.18838,54.9311 42.12028,78.9624 18.2727,15.3705 38.97446,30.3296 62.03147,44.6451 -14.91918,-24.7392 -29.10686,-52.135 -42.33804,-82.0541 -23.17534,-13.4065 -43.80799,-27.3098 -61.81371,-41.5534 z m -22.73437,7.2693 c 3.24105,4.7598 6.51448,9.4285 9.81616,14.0094 1.19901,1.9819 2.39558,3.9696 3.60633,5.9236 2.1369,2.6299 4.36588,5.2566 6.63579,7.8825 1.44644,1.896 2.89319,3.7834 4.34745,5.6464 -0.39021,-0.662 -0.76364,-1.3195 -1.14799,-1.9805 1.9726,2.219 4.00387,4.4344 6.07231,6.6463 1.17554,1.994 2.36665,3.9939 3.58914,6.0018 5.81999,7.1358 11.68856,14.0002 17.57702,20.638 -7.02488,-6.9078 -13.60186,-13.8662 -19.7221,-20.8489 -0.63471,-1.011 -1.27765,-2.0232 -1.89867,-3.0312 -7.61754,-9.6087 -15.12018,-19.6884 -22.47268,-30.208 -2.15548,-3.5129 -4.28737,-7.0785 -6.40276,-10.6794 z m 873.58268,18.392 c -56.38189,6.7138 -114.71599,10.886 -174.15801,11.943 -0.99266,42.9457 -1.98678,82.2416 -2.99508,118.0375 53.63115,-0.981 106.54085,-4.854 158.01169,-11.3357 6.5574,-35.9849 12.9468,-75.4931 19.1414,-118.6448 z m -382.99825,2.8866 c 5.51976,43.1237 11.17893,82.5953 16.96959,118.5452 52.11691,5.7088 105.44659,8.7223 159.24563,8.8143 h 0.004 c -0.091,-35.792 -0.18033,-75.0813 -0.26933,-118.0179 -59.70217,-0.099 -118.65926,-3.3697 -175.94971,-9.3416 z m 761.21165,14.2613 c -25.2184,14.4496 -53.2875,28.2546 -84.1087,41.2272 -12.6757,30.8511 -26.1068,58.8806 -40.1243,83.9878 29.8012,-13.4136 57.1533,-27.8542 81.9179,-43.0847 14.9074,-24.7542 29.0888,-52.1772 42.3151,-82.1303 z m -1153.63832,6.3904 c 13.195,30.1241 27.31963,57.6692 42.15275,82.5034 25.78168,15.1335 54.1575,29.4136 84.98168,42.6022 -13.78765,-25.1272 -27.014,-53.2029 -39.5244,-84.1419 -32.00657,-12.8256 -61.24546,-26.5461 -87.61003,-40.9637 z m 1051.53612,42.2097 c -34.3889,13.6406 -71.6806,26.1517 -111.6949,37.2293 -10.6688,31.155 -21.7608,59.2591 -33.2247,84.2943 37.5312,-10.9487 72.786,-23.4917 105.5251,-37.3542 13.7378,-25.1293 26.9203,-53.2143 39.3945,-84.1694 z m -1075.34015,2.3789 c 14.27273,21.5503 29.1666,40.9636 44.41243,58.2091 18.27857,15.5645 38.65602,30.6578 61.07831,45.0084 -14.89669,-17.0125 -29.48494,-36.4535 -43.53567,-58.2638 -22.98073,-14.3976 -43.65694,-29.4632 -61.95507,-44.9537 z m 130.00153,3.5857 c 12.27765,31.0251 25.22454,59.1463 38.69923,84.2846 33.76303,13.5706 70.00542,25.7483 108.46865,36.247 h 0.008 c -10.9955,-24.9933 -21.64453,-53.0607 -31.91827,-84.1948 -41.16835,-10.6896 -79.65462,-22.9102 -115.25725,-36.3368 z m 1043.32442,26.6145 c -2.1232,2.583 -4.2543,5.1151 -6.3932,7.615 -3.3056,3.1639 -6.6164,6.2545 -9.9269,9.2614 2.0293,-2.3529 4.052,-4.7427 6.0665,-7.1717 3.4202,-3.1519 6.8385,-6.3878 10.2536,-9.7047 z m -232.6538,10.7184 c -43.4646,11.1347 -89.4325,20.4402 -137.5045,27.507 -6.6933,30.762 -13.4986,58.419 -20.4824,83.0502 43.8823,-6.6718 86.1299,-15.5613 126.3456,-26.384 10.8977,-24.9852 21.4574,-53.0451 31.649,-84.1732 z m -671.83282,4.8866 c 9.75444,31.094 19.83102,59.1061 30.22017,84.0423 41.06663,10.2948 84.06552,18.5748 128.57467,24.5676 h 0.006 c -6.26889,-24.5782 -12.38055,-52.1658 -18.40983,-82.8568 -48.90911,-6.3778 -95.84834,-15.1005 -140.39074,-25.7531 z m 856.86712,0.5136 c -24.6189,15.2786 -51.7574,29.7443 -81.276,43.1549 -12.9554,21.7054 -26.3186,40.8755 -39.9351,57.43 28.0115,-13.0646 53.9724,-27.2592 77.7404,-42.3307 14.8732,-17.0025 29.4386,-36.4408 43.4707,-58.2542 z m -1050.4034,6.7283 c 13.92653,21.8214 28.3704,41.2374 43.11355,58.1839 24.61201,14.9175 51.41808,28.8966 80.25793,41.6842 -13.33583,-16.4695 -26.42688,-35.5743 -39.13093,-57.2307 -30.50535,-13.1736 -58.63589,-27.4678 -84.24055,-42.6374 z m 700.7675,19.1479 c -50.40935,6.4029 -102.16079,10.2085 -154.59065,11.1735 -0.89681,30.3711 -1.79495,57.6569 -2.71621,82.0112 47.10277,-0.888 93.72751,-4.3902 139.3134,-10.365 h 0.006 c 6.12416,-24.5682 12.09535,-52.1416 17.98766,-82.8197 z m -339.2964,2.746 c 5.19115,30.61 10.43787,58.1218 15.81778,82.64 46.03552,5.2368 92.9466,7.9528 140.16152,8.035 -0.0831,-24.3503 -0.16523,-51.6305 -0.2464,-81.9936 -52.5834,-0.09 -104.72112,-3.0486 -155.7329,-8.6814 z m 590.6447,21.9759 c -32.3284,13.8146 -67.0861,26.2886 -104.0276,37.1493 -10.3334,21.1283 -20.8945,39.6584 -31.6699,55.51 34.1317,-10.2807 66.4619,-22.1851 96.7403,-35.4697 13.2772,-16.4525 26.3097,-35.5443 38.961,-57.1896 z m -850.32497,6.1678 c 12.36958,21.5863 25.09702,40.6035 38.06316,56.969 31.0929,12.9471 64.19495,24.4452 99.04597,34.2586 -10.29496,-15.7582 -20.37717,-34.1882 -30.25455,-55.217 -37.83634,-10.4047 -73.5424,-22.499 -106.85458,-36.0106 z m 895.79937,11.7337 c -23.5518,14.9476 -49.2244,29.0145 -76.877,41.9461 -12.4077,13.9955 -25.0045,25.8359 -37.5531,35.5106 25.9216,-12.1127 50.1796,-25.3435 72.6518,-39.4441 13.9666,-10.6487 27.9848,-23.299 41.7783,-38.0126 z m -945.25836,6.7186 c 13.63998,14.6155 27.4994,27.1465 41.30466,37.6492 23.15285,13.9216 48.08544,26.9166 74.66124,38.7352 -12.25319,-9.5247 -24.5516,-21.2348 -36.66494,-35.1044 -28.44767,-12.6476 -54.93442,-26.4915 -79.30096,-41.28 z m 774.69716,18.4799 c -39.4827,10.7054 -80.9121,19.4773 -123.8911,26.048 -6.1398,20.3314 -12.35067,38.1076 -18.7555,53.3401 38.8994,-6.0648 76.5801,-14.205 112.6824,-24.2277 10.1965,-15.7395 20.1804,-34.1521 29.9642,-55.1604 z m -596.87169,4.7557 c 9.29576,20.9044 18.76927,39.2159 28.4533,54.8675 36.74218,9.4923 74.98036,17.047 114.34038,22.4759 -5.73785,-15.1766 -11.29376,-32.8703 -16.79005,-53.1097 -43.5693,-5.8978 -85.70961,-14.061 -126.00363,-24.2337 z m 674.72099,19.1439 c -29.8139,13.1176 -61.6013,24.8557 -95.115,34.9814 -9.552,12.9656 -19.2562,23.7962 -28.9861,32.374 30.6902,-9.3147 59.9719,-20.1614 87.6195,-32.331 12.1936,-9.4957 24.4289,-21.1798 36.4816,-35.0244 z m -225.84803,5.6191 c -44.57472,5.8738 -90.13346,9.3103 -136.13502,10.1813 h -0.01 c -0.79902,19.8644 -1.60209,37.2112 -2.43925,52.1918 41.21041,-0.793 82.08873,-3.9245 122.18912,-9.3083 5.60386,-15.1666 11.02745,-32.8424 16.39469,-53.0648 z m -531.16137,0.2109 c 11.73193,13.7155 23.64132,25.2674 35.51506,34.6141 28.28337,11.8276 58.16193,22.2769 89.3998,31.1437 -9.27717,-8.4548 -18.51107,-19.1618 -27.59754,-31.9894 -34.19726,-9.6597 -66.72296,-20.9918 -97.31732,-33.7684 z m 232.69014,2.2811 c 4.70314,20.1384 9.44979,37.7373 14.36418,52.8559 40.42311,4.7068 81.50886,7.1299 122.79652,7.2029 -0.0763,-14.9756 -0.1492,-32.314 -0.22158,-52.1703 -46.11108,-0.081 -91.94196,-2.7427 -136.93912,-7.8885 z m 410.28256,32.3955 c -35.3767,9.8517 -72.2645,17.8445 -110.30621,23.7923 h -0.008 c -5.47477,11.9716 -11.0357,21.9427 -16.78431,29.7725 34.28032,-5.3909 67.64372,-12.6579 99.78322,-21.6517 9.1853,-8.4297 18.3223,-19.1115 27.3149,-31.9131 z m -526.3306,4.3925 c 8.50261,12.6656 17.14654,23.2283 25.85552,31.542 32.62367,8.4978 66.40605,15.2245 101.02677,20.0404 -5.1579,-7.7768 -10.11339,-17.657 -14.99452,-29.5226 -38.4779,-5.3218 -75.89512,-12.7331 -111.88014,-22.0598 z m 394.74938,22.5091 c -39.17227,5.2738 -79.08977,8.3369 -119.31436,9.1129 -0.69633,11.4277 -1.3946,20.9046 -2.16036,28.5753 35.97036,-0.6981 71.70602,-3.456 106.8393,-8.2145 5.03858,-7.7678 9.8736,-17.6291 14.63542,-29.4737 z m -261.38984,2.2909 c 4.15547,11.7477 8.36862,21.5262 12.79596,29.2549 35.37964,4.1549 71.26685,6.2884 107.29392,6.3534 -0.0694,-7.6707 -0.13224,-17.1371 -0.19483,-28.5558 -40.29993,-0.072 -80.40969,-2.4431 -119.89505,-7.0525 z"
     style="stroke-width:0.988917;fill:#ffffff" />
</svg>
