<?xml version="1.0" encoding="UTF-8" standalone="no"?>
<svg
   xmlns:dc="http://purl.org/dc/elements/1.1/"
   xmlns:cc="http://creativecommons.org/ns#"
   xmlns:rdf="http://www.w3.org/1999/02/22-rdf-syntax-ns#"
   xmlns:svg="http://www.w3.org/2000/svg"
   xmlns="http://www.w3.org/2000/svg"
   xmlns:sodipodi="http://sodipodi.sourceforge.net/DTD/sodipodi-0.dtd"
   xmlns:inkscape="http://www.inkscape.org/namespaces/inkscape"
   enable-background="new 0 0 1683.758 1646.725"
   version="1.1"
   viewBox="0 0 144.99998 145"
   id="svg294"
   sodipodi:docname="IC_shadingType_hover.svg"
   inkscape:version="1.0.1 (0767f8302a, 2020-10-17)"
   width="144.99998"
   height="145">
  <metadata
     id="metadata300">
    <rdf:RDF>
      <cc:Work
         rdf:about="">
        <dc:format>image/svg+xml</dc:format>
        <dc:type
           rdf:resource="http://purl.org/dc/dcmitype/StillImage" />
        <dc:title></dc:title>
      </cc:Work>
    </rdf:RDF>
  </metadata>
  <defs
     id="defs298" />
  <sodipodi:namedview
     pagecolor="#ffffff"
     bordercolor="#666666"
     borderopacity="1"
     objecttolerance="10"
     gridtolerance="10"
     guidetolerance="10"
     inkscape:pageopacity="0"
     inkscape:pageshadow="2"
     inkscape:window-width="1920"
     inkscape:window-height="1018"
     id="namedview296"
     showgrid="false"
     inkscape:snap-global="false"
     inkscape:zoom="2.6912797"
     inkscape:cx="184.52216"
     inkscape:cy="76.642934"
     inkscape:window-x="0"
     inkscape:window-y="27"
     inkscape:window-maximized="1"
     inkscape:current-layer="svg294"
     fit-margin-top="0"
     fit-margin-left="0"
     fit-margin-right="0"
     fit-margin-bottom="0"
     inkscape:document-rotation="0" />
  <circle
     style="opacity:1;fill:#c5c5c5;fill-opacity:1;stroke-width:47.5677;stroke-linecap:round;stroke-linejoin:round;paint-order:markers fill stroke;stop-color:#000000"
     id="path830"
     cx="72.499992"
     cy="72.5"
     r="72.5" />
  <path
     id="path2"
     d="M 72.353993,0 C 69.051072,0.00598759 65.761138,0.20144007 62.517953,0.58231864 62.112825,1.3324895 61.727133,2.2713924 61.346201,3.3930237 64.964614,2.9710867 68.641435,2.7537788 72.336335,2.7471634 72.342099,1.6550749 72.3477,0.7440085 72.353993,0 Z m 1.818129,0.01610669 c 0.06984,0.74391788 0.133957,1.65584801 0.19786,2.74893341 3.687605,0.070955 7.34628,0.3516451 10.935779,0.8343617 C 84.869436,2.4691613 84.426981,1.5228457 83.96575,0.76905 80.745552,0.33297583 77.469605,0.08008595 74.172122,0.01610669 Z M 60.752448,0.80887416 C 57.580465,1.2502045 54.486264,1.8665093 51.499429,2.6446825 50.701846,3.4472329 49.911918,4.4567872 49.134632,5.6607036 52.428571,4.8082202 55.85482,4.1303872 59.379374,3.6434739 h 1.81e-4 c 0.447138,-1.1320529 0.900768,-2.0799884 1.3729,-2.83459974 z M 85.716714,1.0253409 c 0.526375,0.7594143 1.035282,1.7154195 1.536663,2.8570783 3.484496,0.5440959 6.861695,1.2746924 10.098642,2.1749336 v 0 C 96.53033,4.8413837 95.695202,3.8209377 94.854101,3.0080564 91.912384,2.1846628 88.856977,1.5192322 85.71637,1.0253409 Z M 49.890238,3.0827488 c -2.857967,0.8114315 -5.590113,1.7671831 -8.174744,2.8487595 -1.085985,0.8941695 -2.173113,1.9920513 -3.24279,3.2891269 2.794154,-1.165402 5.766685,-2.1997477 8.893999,-3.081864 0.830287,-1.2184158 1.674015,-2.240966 2.523535,-3.0560224 z m 46.54934,0.3869146 c 0.890908,0.8260215 1.777512,1.8598867 2.649896,3.0905366 3.063776,0.9244374 5.967816,1.995479 8.689736,3.191601 -1.09866,-1.3084037 -2.21516,-2.4179274 -3.33004,-3.3250564 -2.5257,-1.1127503 -5.202326,-2.1048698 -8.009592,-2.9570812 z m -24.106877,0.091153 c -3.784773,0.0068 -7.550598,0.2285847 -11.25516,0.6593122 -0.449,1.4350935 -0.883142,3.0987065 -1.313353,4.996789 4.122541,-0.4703291 8.322198,-0.7139201 12.54826,-0.7212598 0.0066,-1.8727998 0.01334,-3.5129786 0.02025,-4.9348414 z m 2.082981,0.018231 c 0.07658,1.4222253 0.150098,3.0630866 0.223307,4.9366109 4.216311,0.079657 8.39081,0.3938925 12.47382,0.9306478 C 86.621975,7.5407922 86.126079,5.870198 85.614063,4.4307546 81.939991,3.9381321 78.193363,3.6516356 74.415682,3.5790474 Z M 59.063976,4.4762426 c -3.604942,0.4965193 -7.106196,1.1870536 -10.469088,2.054399 -0.884086,1.4828516 -1.74815,3.2098648 -2.59572,5.1757324 3.684887,-0.927337 7.540814,-1.672028 11.529879,-2.2106865 0.502621,-1.9070543 1.010681,-3.5790951 1.534929,-5.0194449 z m 28.539073,0.2433703 c 0.585135,1.4455152 1.152881,3.1250305 1.714086,5.0403308 3.933672,0.5999193 7.723505,1.3998353 11.333235,2.3752933 C 99.75884,10.160307 98.848429,8.4243987 97.917728,6.9336627 94.614797,6.0181209 91.165388,5.2741276 87.603049,4.7196129 Z M 40.336881,6.5263936 c -2.426161,1.0799459 -4.70057,2.2668216 -6.810499,3.5381614 -1.260497,0.995122 -2.523446,2.178375 -3.764356,3.553205 2.218943,-1.346103 4.632939,-2.606786 7.228029,-3.759229 1.104066,-1.3106693 2.226452,-2.4223807 3.346826,-3.3321374 z m 6.455285,0.4897497 c -3.186253,0.8957094 -6.211055,1.9447871 -9.049967,3.1250507 -1.181325,1.54444 -2.339008,3.3322 -3.46246,5.355739 3.038447,-1.227264 6.297588,-2.326921 9.753641,-3.274083 0.89995,-1.976742 1.819129,-3.7144311 2.758786,-5.2067067 z M 105.793,7.0375598 c 1.14714,0.9228063 2.29623,2.0459924 3.42679,3.3675362 2.52162,1.177818 4.86086,2.45846 7.00456,3.818701 -1.25465,-1.382896 -2.53183,-2.576194 -3.80677,-3.584004 -2.04709,-1.2874697 -4.25904,-2.4957355 -6.62458,-3.6022332 z m -6.100942,0.407092 c 0.983322,1.5004056 1.946002,3.2465422 2.887052,5.2318412 3.37353,0.988235 6.54494,2.121992 9.49225,3.376385 -1.14847,-2.028216 -2.33342,-3.822239 -3.54278,-5.374145 -2.76373,-1.2106662 -5.71679,-2.2959856 -8.836522,-3.2340812 z M 72.307254,9.8441932 c -4.3271,0.00752 -8.625695,0.2557838 -12.84254,0.7343588 -0.490922,2.30253 -0.970146,4.880131 -1.443874,7.743068 4.670365,-0.513827 9.447036,-0.784257 14.264083,-0.792413 0.0074,-2.840916 0.01488,-5.39789 0.0225,-7.6850138 z m 2.382281,0.020885 c 0.08411,2.2876678 0.166335,4.8452338 0.248406,7.6867838 4.802778,0.08818 9.541961,0.435803 14.156927,1.019501 -0.537452,-2.868828 -1.08249,-5.452295 -1.641214,-7.759174 -4.175451,-0.545818 -8.447136,-0.8660032 -12.7636,-0.9471108 z M 32.410544,10.754488 c -1.950218,1.237265 -3.743617,2.543225 -5.378222,3.892861 -1.32759,1.087739 -2.655727,2.339764 -3.958235,3.76507 1.655167,-1.407272 3.497317,-2.771379 5.522072,-4.067911 1.25713,-1.384527 2.536781,-2.579674 3.814385,-3.59002 z m 3.827367,0.03186 c -2.630099,1.164315 -5.07297,2.43615 -7.313716,3.793037 -1.340177,1.591689 -2.650392,3.40986 -3.910978,5.447954 2.328225,-1.373652 4.888475,-2.668895 7.666852,-3.863659 1.153166,-2.029031 2.343254,-3.823976 3.557842,-5.377332 z m 20.941809,0.07505 c -4.074504,0.547086 -8.00833,1.302487 -11.76288,2.240245 -0.945506,2.338689 -1.861607,4.959272 -2.746668,7.862718 4.067148,-0.966486 8.356824,-1.759714 12.830075,-2.340603 0.549773,-2.870006 1.107542,-5.454575 1.679473,-7.76236 z m 32.532622,0.268681 c 0.636895,2.312589 1.257595,4.903184 1.867638,7.779352 4.395697,0.643237 8.59501,1.488956 12.56245,2.498306 -0.92397,-2.905802 -1.88309,-5.53013 -2.87442,-7.872806 C 97.592257,12.5495 93.728166,11.738964 89.712342,11.130074 Z m 23.788878,0.208325 c 1.28992,1.022762 2.58174,2.227618 3.85039,3.619757 1.90794,1.277048 3.64145,2.614515 5.20009,3.988438 0.30224,0.323703 0.5969,0.647993 0.88353,0.97242 0.30921,0.280611 0.61809,0.571176 0.92682,0.867283 0.18784,0.219853 0.37485,0.443929 0.56138,0.670818 -0.2915,-0.283105 -0.5832,-0.560332 -0.87505,-0.830115 1.06276,1.251312 2.0132,2.499709 2.87822,3.719936 0.24152,0.251659 0.48311,0.508788 0.72445,0.768874 0.14243,0.209972 0.28423,0.421976 0.42532,0.636479 -0.23158,-0.255373 -0.46334,-0.508014 -0.69501,-0.755775 0.79031,1.143018 1.51019,2.256652 2.19982,3.316208 0.10334,0.130314 0.20677,0.261875 0.3102,0.393639 0.072,0.125331 0.14409,0.250495 0.21552,0.377004 -0.0531,-0.06969 -0.10634,-0.139971 -0.15943,-0.209387 0.0965,0.147352 0.19268,0.29307 0.28857,0.438066 0.95393,1.705964 1.86219,3.519689 2.71499,5.436803 0.61864,0.542283 1.19268,1.089027 1.72517,1.637926 0.0797,0.139558 0.16063,0.276913 0.24252,0.412756 0.007,0.01423 0.014,0.02878 0.0211,0.04301 0.28264,0.505128 0.56351,1.017773 0.84198,1.537038 -0.14181,-0.231087 -0.27912,-0.468547 -0.4125,-0.712411 0.14934,0.279298 0.29833,0.559927 0.44661,0.843212 -0.63459,-0.671782 -1.33713,-1.340799 -2.11033,-2.003247 1.16512,2.815995 2.20601,5.81897 3.1017,8.985583 1.23001,0.883385 2.26587,1.781267 3.0967,2.684861 -0.0359,-0.125965 -0.0735,-0.250165 -0.10992,-0.375586 0.30763,0.897976 0.60519,1.808216 0.88889,2.732472 -0.17637,-0.577264 -0.27915,-1.213655 -0.37442,-1.88997 -0.39433,-1.096529 -0.81088,-2.169259 -1.24481,-3.219389 -0.0951,-0.292801 -0.19166,-0.584113 -0.28961,-0.873833 0.42808,0.991861 0.84041,2.005088 1.23303,3.040447 0.10468,0.349077 0.20745,0.699978 0.30797,1.052952 0.12053,0.143456 0.23395,0.287257 0.34429,0.431165 0.0156,0.147805 0.0306,0.294326 0.0454,0.438597 0.16803,0.485101 0.33149,0.974402 0.49022,1.467478 -0.0501,-0.06289 -0.10039,-0.1257 -0.15268,-0.188501 -0.0981,-0.302679 -0.1972,-0.604234 -0.29877,-0.903922 0.0685,0.649671 0.14265,1.260717 0.28978,1.817046 0.17521,0.602095 0.3437,1.209768 0.50633,1.82165 0.45024,2.05803 0.83055,4.160243 1.13349,6.300015 0.1068,0.07911 0.20702,0.158835 0.30415,0.238945 0.12108,0.698245 0.23218,1.400756 0.33358,2.106612 -0.11513,-0.0831 -0.23706,-0.165523 -0.36665,-0.247264 0.38191,3.263488 0.58574,6.57619 0.60674,9.90402 0.17913,0.0064 0.34168,0.01294 0.49093,0.01947 9.1e-4,0.0657 0.002,0.131296 0.002,0.196998 0.11379,-0.01251 0.25756,-0.02219 0.41719,-0.03469 0,-0.04712 -0.001,-0.0943 -0.002,-0.14142 0.0307,0.0018 0.0608,0.0039 0.0897,0.0057 0,0.04287 0.001,0.08555 0.001,0.1285 0.15723,-0.01287 0.29598,-0.02397 0.40039,-0.04336 -9e-5,-0.01423 0,-0.02825 -9e-4,-0.04248 0.0182,0.0053 0.0311,0.01068 0.0389,0.01575 -0.0165,-2.605842 -0.17,-5.203438 -0.45805,-7.770856 0.034,-0.299464 -0.0278,-0.634118 -0.20512,-0.947994 0.0489,0.422572 0.0932,0.846193 0.13537,1.270304 -0.023,0.07449 -0.0498,0.147531 -0.0802,0.219122 -0.0511,-0.538205 -0.10614,-1.075618 -0.16791,-1.611377 0.0391,-0.129408 0.0712,-0.262205 0.0916,-0.398772 -0.0563,-0.418494 -0.11735,-0.835147 -0.18072,-1.251012 0.0289,0.06355 0.0552,0.127335 0.0777,0.191334 0,0 0,1.81e-4 0,1.81e-4 -0.26244,-1.77529 -0.58938,-3.524791 -0.97545,-5.243169 0.22486,1.084295 0.4269,2.180856 0.60656,3.287534 -0.25091,-1.410173 -0.54187,-2.802823 -0.8721,-4.173756 -0.18161,-0.840703 -0.37614,-1.674252 -0.58389,-2.499368 0.049,0.176442 0.0987,0.352404 0.14644,0.529751 -0.0665,-0.666799 -0.22039,-1.370527 -0.49595,-2.082365 -0.71577,-2.557269 -1.55448,-5.014768 -2.49981,-7.355268 0.10317,0.255826 0.19645,0.510114 0.28234,0.762678 -0.16627,-0.434352 -0.33488,-0.866224 -0.50825,-1.292782 -0.0483,-0.107479 -0.0991,-0.215352 -0.15076,-0.323374 -0.0757,-0.207706 -0.15542,-0.416246 -0.24184,-0.626036 -0.0993,-0.229456 -0.20008,-0.45682 -0.30121,-0.683737 0.0206,0.04422 0.0426,0.08852 0.0627,0.132746 -0.97458,-2.239093 -2.04224,-4.351825 -3.18185,-6.329928 -0.38919,-0.779984 -0.83738,-1.572092 -1.34763,-2.36839 -0.47949,-0.836715 -1.02146,-1.682252 -1.6362,-2.528573 -0.99346,-1.565771 -2.02882,-3.025198 -3.09132,-4.381903 -0.42232,-0.55497 -0.84876,-1.094728 -1.27977,-1.615624 -0.35815,-0.445409 -0.7349,-0.890501 -1.12727,-1.334731 -1.04095,-1.248049 -2.20994,-2.492788 -3.5175,-3.713742 -1.15139,-1.267804 -2.32326,-2.405057 -3.4976,-3.419574 -0.4303,-0.390491 -0.86148,-0.765654 -1.29259,-1.121981 -1.57629,-1.352356 -3.3092,-2.666099 -5.19818,-3.91587 z m 30.70099,50.297286 c 0.0427,0.288903 0.0842,0.578172 0.12359,0.868344 0.0184,-0.276578 -0.0196,-0.573369 -0.12359,-0.868344 z M 109.99098,11.33946 c 1.23985,1.560334 2.45436,3.360693 3.62986,5.393439 2.68753,1.215788 5.1563,2.525984 7.39386,3.908968 -1.26963,-2.036371 -2.59044,-3.855631 -3.94214,-5.45167 -2.16284,-1.370299 -4.52779,-2.661501 -7.08158,-3.850737 z m -66.575068,2.284495 c -3.512767,0.955068 -6.819884,2.061288 -9.898185,3.292844 -1.221677,2.351557 -2.392851,4.975627 -3.500197,7.864664 3.240718,-1.210962 6.746389,-2.315278 10.499726,-3.283109 0.931237,-2.906164 1.898642,-5.531089 2.898656,-7.874399 z m 59.803688,0.456827 c 1.04221,2.346573 2.04909,4.974142 3.01534,7.881303 3.64695,1.002191 7.04276,2.132047 10.17203,3.361518 -1.12427,-2.881242 -2.31623,-5.500933 -3.5613,-7.850858 -2.98409,-1.257475 -6.19989,-2.396568 -9.62607,-3.391963 z m -75.471659,1.231012 c -2.038493,1.30351 -3.889092,2.673959 -5.546653,4.086851 -1.383073,1.611625 -2.731005,3.422137 -4.019687,5.427245 1.657294,-1.399117 3.532578,-2.760464 5.618665,-4.062071 1.271221,-2.035919 2.593938,-3.855261 3.947675,-5.452025 z m -1.575954,0.06248 c -1.329364,1.100879 -2.65908,2.361761 -3.962563,3.792505 -1.490758,1.33414 -2.815072,2.700917 -3.980912,4.073753 1.275919,-1.449774 2.578586,-2.751343 3.882069,-3.917288 1.216625,-1.331784 2.567013,-2.656969 4.061406,-3.94897 z m 92.034943,0.554353 c 1.36294,1.600298 2.69437,3.419887 3.9726,5.453087 2.00029,1.307135 3.79178,2.669501 5.36887,4.064902 -1.28603,-1.997947 -2.63197,-3.804896 -4.01362,-5.417156 -1.58693,-1.412528 -3.36417,-2.787717 -5.32785,-4.100833 z m -86.307914,1.655625 c -2.806473,1.194945 -5.388124,2.487643 -7.731593,3.856401 -1.340353,2.315398 -2.612879,4.87736 -3.79742,7.673509 2.39257,-1.294539 5.047706,-2.527709 7.956458,-3.682236 1.127286,-2.879612 2.323225,-5.498292 3.572555,-7.847674 z m 82.514644,0.569045 c 1.26963,2.346663 2.48302,4.959518 3.62449,7.829796 2.79982,1.167033 5.34806,2.407025 7.6357,3.703829 -1.18686,-2.779112 -2.46395,-5.32857 -3.81041,-7.63563 -2.25015,-1.376915 -4.73743,-2.683295 -7.44978,-3.897995 z m -42.133064,1.381104 c -4.929253,0.0083 -9.813176,0.283825 -14.585021,0.804449 -0.52735,3.35402 -1.04255,7.031322 -1.543931,11.043168 5.239459,-0.542373 10.636606,-0.841406 16.104197,-0.850468 0.0082,-3.996259 0.01642,-7.657361 0.02475,-10.996971 z m 2.713432,0.02248 3.62e-4,1.81e-4 c 0.092,3.340426 0.183011,7.00212 0.27368,10.998742 5.442598,0.09642 10.780886,0.477605 15.934728,1.086405 -0.561739,-4.014294 -1.143045,-7.69466 -1.739884,-11.051489 -4.711048,-0.590585 -9.556102,-0.94412 -14.46887,-1.033836 z m -53.521342,0.478422 c -0.05371,0.04894 -0.107451,0.09946 -0.161161,0.148853 0.0086,-0.01006 0.0172,-0.02056 0.02579,-0.03062 -1.487745,1.336134 -2.804892,2.70434 -3.958235,4.078354 -0.25951,0.31156 -0.517199,0.631185 -0.773783,0.955251 0.0585,-0.07458 0.115712,-0.149142 0.175182,-0.223724 -1.324842,1.603652 -2.612518,3.367924 -3.838272,5.292196 -0.795278,1.039618 -1.480443,2.080598 -2.069479,3.10753 -0.396974,0.618859 -0.756012,1.234951 -1.0784488,1.844657 -0.8133583,1.401292 -1.589651,2.872945 -2.3235973,4.40863 -0.4037094,0.82874 -0.7949816,1.67628 -1.1719255,2.543264 -0.1956952,0.437252 -0.3654705,0.87087 -0.5149895,1.299331 -0.2720945,0.676948 -0.5354283,1.363639 -0.7897082,2.059709 0.075868,-0.261808 0.1594028,-0.52607 0.2529075,-0.79259 -0.790758,2.046431 -1.5021352,4.177609 -2.1221029,6.384441 -0.3020514,0.687279 -0.488111,1.36946 -0.5861359,2.021124 -0.2234365,0.568293 -0.3585892,1.131412 -0.4213392,1.669255 -0.5620037,2.278696 -1.0169158,4.618696 -1.36009158,7.002514 0.0177261,-0.06534 0.0380376,-0.130856 0.062145,-0.196466 -0.0458218,0.308659 -0.0898959,0.618061 -0.13190663,0.928169 0.0225121,0.277939 0.0962912,0.54307 0.19041636,0.794184 -0.0576096,0.52144 -0.11105498,1.043776 -0.158738,1.567482 -0.037845,-0.07485 -0.073088,-0.151535 -0.10472889,-0.229742 0.0514054,-0.537299 0.10621759,-1.073869 0.16825871,-1.608721 -0.21776421,0.317631 -0.31981205,0.658967 -0.31245583,0.96817 -0.29504965,2.614089 -0.45237363,5.259817 -0.46877025,7.91387 0.0031021,-0.0031 0.01179749,-0.0072 0.02544653,-0.01168 -8.863e-5,0.0083 -3.4437e-4,0.01671 -3.4437e-4,0.02496 v 1.81e-4 c 0.08402133,0.02193 0.21000489,0.03156 0.36023301,0.04443 2.6282e-4,-0.03915 0.001119,-0.0782 0.001385,-0.117349 0.0283616,-0.002 0.0582342,-0.0039 0.088457,-0.0058 -3.5344e-4,0.0435 -0.001208,0.08704 -0.001385,0.130624 0.16228181,0.01314 0.31513969,0.02343 0.44436234,0.03575 3.5344e-4,-0.06343 0.001372,-0.126749 0.001904,-0.190094 0.238415,-0.01078 0.5125549,-0.02091 0.826926,-0.03115 0.02136,-3.385647 0.2285716,-6.755428 0.6169487,-10.074467 -0.2630542,0.151974 -0.4999763,0.30591 -0.7121569,0.461961 0.1020134,-0.705947 0.2147357,-1.407837 0.3366907,-2.106082 0.1966702,-0.16475 0.4139608,-0.327998 0.6512236,-0.489395 0.4581291,-3.236391 1.0861912,-6.389055 1.8710996,-9.428252 -0.1103445,0.115634 -0.215446,0.231534 -0.3181682,0.347621 0.039795,-0.308025 0.072438,-0.626836 0.1059406,-0.955251 -0.1565208,0.453565 -0.3087167,0.911004 -0.4571721,1.371547 -0.055128,0.0686 -0.1084349,0.137069 -0.1608153,0.20567 0.2110284,-0.661271 0.4296762,-1.316122 0.6574554,-1.962891 0.00399,-0.03815 0.00821,-0.07698 0.012291,-0.115402 0.1120285,-0.146174 0.2291753,-0.292165 0.3517508,-0.438067 -0.081185,0.578079 -0.1681743,1.125835 -0.3010308,1.633501 0.5651942,-1.789246 1.1816347,-3.526759 1.830939,-5.213964 0.1562549,-0.342733 0.294806,-0.704543 0.4237627,-1.081803 0.019587,-0.03906 0.038154,-0.07925 0.057298,-0.118765 -0.437301,1.278771 -0.8488065,2.586512 -1.2299161,3.924368 0.9051794,-0.916735 2.0204973,-1.825223 3.334882,-2.718667 0.9051787,-3.207756 1.9559877,-6.246918 3.1311347,-9.093906 -1.057623,0.859824 -1.9975092,1.731731 -2.8191987,2.607867 0.05309,-0.09987 0.1064255,-0.199185 0.1596034,-0.298416 -0.079324,0.131673 -0.1598336,0.261545 -0.2423477,0.388507 -0.017993,0.01939 -0.035587,0.03884 -0.05349,0.05823 0.2619907,-0.486913 0.5265706,-0.966798 0.7931706,-1.440752 0.1890476,-0.28981 0.3710574,-0.590626 0.5480514,-0.900735 0.714005,-0.73558 1.505477,-1.467344 2.374318,-2.190508 1.160966,-2.61563 2.422217,-5.038647 3.761241,-7.255267 -0.12098,0.107387 -0.238706,0.215447 -0.357116,0.323196 0.317916,-0.486551 0.644322,-0.981966 0.983066,-1.484647 0.07596,-0.06896 0.150269,-0.138127 0.227289,-0.206909 0.801482,-1.244968 1.626493,-2.41589 2.468833,-3.511965 0.528945,-0.671421 1.086557,-1.346437 1.678606,-2.0213 z m 33.651057,0.609752 c -4.559044,0.586688 -8.923391,1.384641 -13.053555,2.3514 -0.961991,3.354653 -1.87447,7.02392 -2.716721,11.007946 l 1.81e-4,5.43e-4 c 4.385685,-0.919272 9.059674,-1.709505 13.992827,-2.306796 0.573082,-4.014565 1.167058,-7.695255 1.777277,-11.053081 z m 36.875496,0.288327 v 1.81e-4 c 0.675274,3.359819 1.330068,7.042751 1.957474,11.05786 4.821219,0.652298 9.370857,1.481739 13.626887,2.428923 -0.86752,-3.971157 -1.81295,-7.632085 -2.81348,-10.981573 -4.02603,-1.00781 -8.294355,-1.856894 -12.770709,-2.505388 z m -69.050307,1.23933 c -2.09238,1.292635 -3.969227,2.642453 -5.623685,4.028973 -1.345671,2.23257 -2.614278,4.677225 -3.783399,7.320223 1.628136,-1.274965 3.495656,-2.519883 5.594949,-3.721352 1.187113,-2.775669 2.464691,-5.322596 3.812135,-7.627844 z M 123.02844,22.78689 c 1.35152,2.296005 2.63168,4.829326 3.81941,7.586779 2.00171,1.200473 3.77546,2.441175 5.31382,3.708255 -1.16239,-2.620251 -2.42496,-5.046724 -3.76523,-7.266063 -1.57238,-1.382079 -3.36372,-2.731896 -5.368,-4.028971 z m -83.140769,0.742146 c -3.799395,0.963767 -7.341561,2.05833 -10.61086,3.253727 -1.170644,3.271623 -2.250477,6.826409 -3.211803,10.651121 3.361952,-1.051066 7.026859,-2.036701 10.991346,-2.929646 0.87212,-3.968348 1.823593,-7.627255 2.831317,-10.975202 z M 26.065008,37.433884 c -1.82e-4,5.5e-5 -3.63e-4,9.1e-5 -5.44e-4,1.81e-4 l 3.62e-4,5.44e-4 c 5.9e-5,-2.72e-4 9.1e-5,-4.53e-4 1.82e-4,-7.25e-4 z M 106.8891,23.991528 c 1.04181,3.340779 2.02148,6.989143 2.91476,10.941395 3.83148,0.912747 7.36449,1.909445 10.59666,2.966463 -0.96669,-3.795622 -2.05642,-7.327943 -3.24106,-10.581916 -3.15425,-1.211982 -6.58211,-2.329822 -10.27036,-3.325942 z m 22.16895,2.868052 c 0.38404,0.379254 0.75287,0.760181 1.10632,1.142335 0.10317,0.126509 0.20637,0.252753 0.30917,0.381074 -0.0267,-0.04422 -0.0546,-0.08879 -0.0815,-0.133101 0.19897,0.219486 0.39216,0.439281 0.58112,0.659312 0.0928,0.153876 0.18407,0.307483 0.2735,0.460545 0.45095,0.588772 0.8971,1.195319 1.33742,1.819525 -0.30001,-0.38016 -0.61447,-0.76016 -0.94569,-1.139504 -0.004,-0.0059 -0.009,-0.01181 -0.0133,-0.0177 0.001,0.0023 0.002,0.0043 0.004,0.0066 -0.17567,-0.201001 -0.35582,-0.401682 -0.54026,-0.602319 -0.0734,-0.129591 -0.14737,-0.259519 -0.2228,-0.389924 -0.59745,-0.75878 -1.20124,-1.486464 -1.80774,-2.186793 z M 27.573624,27.423491 c -2.923996,1.134771 -5.588944,2.342626 -7.987098,3.608074 -1.223361,3.103902 -2.331076,6.44895 -3.297144,10.013757 2.400902,-1.057381 5.08066,-2.077271 8.038336,-3.053545 0.967575,-3.78964 2.058794,-7.317214 3.245906,-10.568286 z m -12.540297,0.377887 c -0.187985,0.228006 -0.375761,0.457807 -0.562593,0.691703 -0.189226,0.315909 -0.37124,0.629963 -0.54788,0.941976 -0.184971,0.201 -0.364417,0.402281 -0.540436,0.603735 0.103697,-0.185776 0.208992,-0.372088 0.317476,-0.559133 -0.627236,0.821038 -1.245064,1.676902 -1.850673,2.566451 0.09457,-0.161127 0.188696,-0.323092 0.284239,-0.482316 -0.160775,0.210878 -0.315051,0.421708 -0.46652,0.632586 0.725704,-1.092541 1.470832,-2.13392 2.229948,-3.124874 0.359485,-0.424384 0.739553,-0.847918 1.136439,-1.270128 z m 103.767523,0.164784 c 1.19816,3.231365 2.29661,6.734479 3.26755,10.492887 2.83395,0.977995 5.39432,1.995734 7.68,3.048765 -0.96199,-3.526383 -2.06679,-6.839412 -3.28936,-9.916763 -2.29099,-1.266355 -4.84622,-2.479424 -7.65819,-3.624889 z m 14.12265,3.711086 c 0.29478,0.427194 0.58673,0.86229 0.8754,1.305704 0.19853,0.344728 0.3942,0.695105 0.58839,1.04835 -0.29363,-0.464438 -0.59061,-0.920513 -0.89098,-1.368006 -0.18914,-0.332493 -0.37986,-0.661439 -0.57281,-0.986048 z m -114.571217,0.02443 c -2.095836,1.16957 -3.957489,2.379107 -5.577294,3.617279 -1.186136,2.883508 -2.248036,5.965619 -3.163852,9.222582 1.574337,-1.003732 3.393931,-1.984518 5.453696,-2.942214 0.961015,-3.51877 2.06524,-6.825281 3.28745,-9.897647 z M 127.6372,32.259567 v 5.44e-4 c 0,6.6e-5 0,9.1e-5 0,1.81e-4 -9e-5,-2.71e-4 0,-4.53e-4 0,-7.25e-4 z m 0,7.25e-4 c 1.21962,3.044882 2.31971,6.318554 3.27551,9.798351 1.95429,0.951262 3.67388,1.923931 5.15249,2.917965 -0.90695,-3.215911 -1.95984,-6.262184 -3.13685,-9.114791 -1.5286,-1.229674 -3.2948,-2.434102 -5.29115,-3.601525 z m -55.38759,1.055945 c -5.589193,0.0092 -11.099213,0.313823 -16.438291,0.857194 -0.543391,4.583401 -1.065329,9.53341 -1.525408,14.856559 5.749879,-0.499056 11.768232,-0.831655 17.936001,-0.841441 0.0089,-5.33919 0.01797,-10.29191 0.02701,-14.871958 z m 3.080762,0.02478 c 0.09997,4.580588 0.199099,9.534222 0.297741,14.873551 6.115567,0.103853 12.023497,0.508449 17.632899,1.047289 C 92.764948,43.953749 92.189225,39.012403 91.583433,34.433261 86.337246,33.82564 80.891912,33.438889 75.330372,33.341017 Z m -22.371489,1.146761 c 0,0 0,1.81e-4 0,1.81e-4 9.1e-5,-1.3e-5 2.72e-4,1.4e-5 3.63e-4,0 z m 0,1.81e-4 c -5.005968,0.594024 -9.735781,1.372036 -14.165413,2.265732 -0.875134,4.473838 -1.647221,9.262591 -2.251413,14.344686 4.552043,-0.657102 9.455968,-1.274002 14.711734,-1.788374 0.50235,-5.304415 1.087703,-10.243858 1.705092,-14.822044 z m 41.415195,0.29169 v 1.82e-4 c 0.672348,4.570804 1.302745,9.498081 1.832838,14.78045 5.097034,0.541286 9.840554,1.167708 14.234834,1.829613 -0.60871,-5.034427 -1.39274,-9.78725 -2.28932,-14.233176 -4.29316,-0.917913 -8.892345,-1.731018 -13.778524,-2.377064 z m -84.4039197,1.1126 c -0.1496075,0.309656 -0.2977723,0.621831 -0.4441889,0.937197 -0.3173845,0.534853 -0.6311049,1.078448 -0.9392719,1.633147 -0.2856548,0.825206 -0.5314835,1.621383 -0.769455,2.380072 -0.3655998,0.936219 -0.716511,1.890535 -1.051444,2.863274 -0.035452,0.08836 -0.07162,0.175364 -0.1068061,0.263902 0.1236387,-0.361945 0.2386582,-0.737934 0.3517502,-1.125344 -0.3554949,0.77192 -0.7014292,1.558473 -1.0372488,2.358124 0.1063561,-0.322706 0.2147606,-0.643163 0.3245733,-0.962152 0.2751965,-0.626381 0.5564589,-1.244276 0.8440637,-1.852623 0.1583819,-0.557236 0.3191345,-1.136908 0.4957746,-1.734743 0.088364,-0.218944 0.1761878,-0.438382 0.2662365,-0.655242 -0.038643,0.04903 -0.075105,0.09806 -0.1130384,0.147085 0.052026,-0.169282 0.1049873,-0.339434 0.1604689,-0.511344 -0.1671562,0.31591 -0.3317322,0.635843 -0.4952552,0.957551 -0.1260315,0.172998 -0.2485185,0.34596 -0.3655989,0.518777 0.3396302,-0.688819 0.6877067,-1.365224 1.0440011,-2.027672 0.018524,-0.05419 0.038073,-0.108904 0.056951,-0.163368 C 8.326477,38.733115 8.4641311,38.54739 8.6085095,38.361705 8.7181451,38.115846 8.8295441,37.872687 8.9412178,37.63 9.2788986,37.039325 9.6220197,36.459634 9.9701583,35.892249 Z m 125.7355017,0.67294 c 0.37128,0.754249 0.73362,1.5238 1.08433,2.311398 0.009,0.01305 0.0183,0.02589 0.0277,0.03894 0.0734,0.211059 0.1447,0.420903 0.21223,0.628338 0.19729,0.371732 0.39129,0.748818 0.58354,1.128707 -0.0428,-0.05936 -0.0842,-0.11861 -0.1281,-0.178058 0.10139,0.244408 0.20072,0.491303 0.29999,0.738429 -0.19232,-0.386867 -0.38667,-0.770706 -0.58423,-1.149416 0.0967,0.312828 0.1875,0.620437 0.27507,0.923569 -0.14722,-0.371914 -0.29644,-0.741712 -0.44835,-1.107645 -0.0692,-0.08664 -0.14182,-0.173283 -0.21344,-0.260008 -0.0758,-0.236705 -0.15372,-0.476192 -0.23473,-0.718606 -0.20562,-0.37581 -0.41382,-0.746288 -0.62369,-1.113308 0.12514,0.150705 0.24726,0.301345 0.36594,0.452049 -0.01,-0.02175 -0.0197,-0.04303 -0.0294,-0.06478 0.0332,0.059 0.0667,0.117199 0.0997,0.176466 -0.20535,-0.588591 -0.43251,-1.192198 -0.68653,-1.806073 z M 10.03213,36.921307 C 9.7836111,37.368165 9.5367429,37.821051 9.2912377,38.278693 9.5508351,37.847784 9.7951331,37.39372 10.03213,36.921307 Z m 26.446571,0.316115 c -3.988001,0.862361 -7.668817,1.806514 -11.041548,2.807165 -0.964207,4.201791 -1.771119,8.652311 -2.377261,13.315097 v 3.62e-4 c 3.384607,-0.659458 7.08908,-1.299307 11.12308,-1.912094 0.609332,-5.024731 1.395336,-9.770033 2.295729,-14.210522 z m 98.696569,0.07398 c 0.0627,0.119984 0.12624,0.238231 0.19041,0.355587 -0.0635,-0.118716 -0.12677,-0.237597 -0.19041,-0.355587 z m -24.78545,0.340542 c 0.91765,4.409852 1.71215,9.115506 2.32394,14.089633 3.88298,0.614056 7.44168,1.251568 10.68617,1.907492 -0.60287,-4.603338 -1.40774,-9.002891 -2.37363,-13.161818 -3.24005,-1.004275 -6.78542,-1.956544 -10.63648,-2.835307 z M 23.697614,40.57416 c -2.957322,0.924891 -5.634061,1.886654 -8.031239,2.881504 -0.946216,3.845193 -1.718034,7.883821 -2.288458,12.077183 v 3.62e-4 c 2.369793,-0.623118 5.015934,-1.230729 7.947109,-1.82802 0.602065,-4.591466 1.40643,-8.980884 2.372588,-13.131021 z m 99.002956,0.442846 v 3.63e-4 c 0.96617,4.10573 1.76724,8.443175 2.36549,12.974377 2.80036,0.592307 5.32184,1.194155 7.57251,1.811383 -0.56457,-4.132828 -1.32966,-8.116665 -2.26958,-11.913284 -2.28081,-0.989686 -4.83668,-1.948031 -7.66842,-2.87283 z M 5.6695202,43.657614 c -0.1584706,0.359316 -0.2984688,0.71634 -0.422551,1.069767 0.1387061,-0.358954 0.2789702,-0.716159 0.422551,-1.069767 z m 8.7768058,0.317709 C 12.397818,44.872392 10.5894,45.789045 9.0255205,46.727619 8.1424986,50.192288 7.4311488,53.808095 6.9096494,57.538923 v 7.25e-4 c 1.5222224,-0.574546 3.2780386,-1.132333 5.2712416,-1.683769 0.563333,-4.120774 1.326931,-8.093618 2.265435,-11.880539 z m 117.081944,0.431695 c 0.93137,3.737419 1.68755,7.655121 2.24484,11.715224 1.88446,0.544549 3.53769,1.09522 4.96259,1.663059 -0.51467,-3.673372 -1.21724,-7.235573 -2.09025,-10.650944 -1.46759,-0.929036 -3.17499,-1.83736 -5.11718,-2.727339 z M 8.2408323,47.214891 C 6.9428445,48.045716 5.8426494,48.890398 4.9516508,49.745056 4.1526503,52.839443 3.5128336,56.05182 3.0459301,59.351013 3.8886253,58.83066 4.9276266,58.329131 6.1557742,57.834153 6.6690312,54.172108 7.3697756,50.620565 8.2408323,47.214891 Z M 137.37786,47.614902 c 0.86064,3.357259 1.55242,6.855591 2.05876,10.46032 1.14208,0.487366 2.10118,0.98146 2.868,1.494381 -0.45963,-3.246813 -1.08968,-6.409291 -1.87698,-9.457279 -0.81608,-0.842124 -1.83666,-1.676592 -3.04978,-2.497422 z M 3.8614311,48.874411 C 3.6752192,49.474782 3.49512,50.080452 3.32238,50.692695 c 0.00718,-0.01423 0.01532,-0.02843 0.022677,-0.04266 -0.3065715,0.967029 -0.5956067,1.948551 -0.8636243,2.945577 -0.015599,0.168919 -0.025567,0.335794 -0.031505,0.500545 -0.1318817,0.567477 -0.2580619,1.138164 -0.3778898,1.712619 -0.00328,-0.162758 -0.0019,-0.327857 0.00519,-0.495236 0.1828439,-0.833724 0.3770657,-1.660785 0.5857897,-2.479014 -0.029248,0.06525 -0.056236,0.130333 -0.083091,0.195581 0.3887317,-1.415882 0.8164593,-2.802349 1.2815015,-4.155701 z M 141.50764,50.357465 c 0.0665,0.118806 0.13026,0.237414 0.18973,0.355585 0.21076,0.668158 0.4131,1.343336 0.6057,2.025902 -0.0512,-0.109834 -0.10683,-0.22016 -0.16515,-0.330629 -0.20065,-0.690994 -0.41075,-1.374817 -0.63028,-2.050858 z m -69.291612,1.515621 c -6.296019,0.01 -12.412621,0.347216 -18.229416,0.813829 l -1.82e-4,-1.81e-4 c -0.456888,5.916726 -0.805407,12.155097 -0.840948,18.602869 5.926963,-0.03752 12.269941,-0.09765 19.041282,-0.107614 0.0094,-6.869619 0.01942,-13.301561 0.02926,-19.308908 z m 3.478558,0.0262 c 0.107065,6.008163 0.253736,12.439684 0.288567,19.296162 6.574139,0.03516 12.724619,0.07338 18.465193,0.110624 C 94.413156,64.948197 94.065708,58.775573 93.581082,52.90144 87.917792,52.404558 81.927056,52.004045 75.694586,51.899286 Z m -24.764674,1.046757 c -5.28404,0.471236 -10.203973,1.018466 -14.764879,1.591199 -0.548798,5.468236 -0.871249,11.124651 -0.904132,16.876444 l 7.25e-4,1.81e-4 c 4.560375,-0.0348 9.487786,-0.06946 14.79673,-0.104074 0.0351,-6.339932 0.38235,-12.498674 0.871588,-18.363746 z m 91.545388,0.206025 c 0.14837,0.583788 0.28887,1.172274 0.42394,1.763946 -0.0571,-0.56811 -0.18925,-1.163665 -0.42394,-1.763946 z m -45.925114,0.02212 c 0.508833,5.814685 0.853117,11.902217 0.887863,18.151526 5.132311,0.03426 9.889301,0.0684 14.286241,0.102836 -0.0324,-5.663981 -0.35074,-11.239841 -0.89998,-16.638207 v -1.82e-4 c -4.40022,-0.574272 -9.15556,-1.125712 -14.273952,-1.615978 z m -62.745968,1.66713 c -4.033026,0.530412 -7.734656,1.078373 -11.115984,1.64005 -0.53116,4.91381 -0.824226,9.952955 -0.854449,15.04683 l 3.62e-4,-1.81e-4 c 3.367235,-0.03208 7.053022,-0.06386 11.070803,-0.09558 0.03253,-5.646761 0.350132,-11.207258 0.899284,-16.591124 z m 109.097452,0.07434 c 0.006,0.05492 0.0112,0.109966 0.0154,0.164431 0.10653,0.434986 0.20775,0.872828 0.3064,1.312074 -0.10264,-0.494797 -0.21004,-0.986873 -0.3218,-1.476505 z m -29.80431,0.178059 c 0.54827,5.313725 0.86201,10.793192 0.8941,16.353773 3.86382,0.03135 7.40169,0.06253 10.62765,0.09434 -0.0298,-5.01295 -0.31916,-9.973904 -0.84597,-14.81585 v -1.81e-4 c -3.24023,-0.557779 -6.79512,-1.102488 -10.67561,-1.632084 z m -92.140702,1.680936 c -2.923199,0.506941 -5.561711,1.020624 -7.925298,1.546596 -0.491435,4.364466 -0.756938,8.819536 -0.784342,13.31014 2.347457,-0.02945 4.964544,-0.05836 7.865231,-0.08708 0.02969,-4.997001 0.318478,-9.943114 0.844409,-14.769654 z m 104.475182,0.242486 c 0.52114,4.75522 0.80624,9.624165 0.83557,14.541327 2.76881,0.02836 5.26049,0.05675 7.48873,0.08584 -0.0269,-4.416656 -0.28877,-8.79976 -0.77447,-13.095797 v -3.63e-4 c -2.24438,-0.520716 -4.7579,-1.028883 -7.54983,-1.531021 z M 11.838834,58.593821 c -1.9827446,0.464076 -3.7287465,0.932508 -5.2444099,1.415796 -0.444973,3.851549 -0.683453,7.771507 -0.7080024,11.715933 1.5011282,-0.02683 3.2229813,-0.05267 5.1796683,-0.07841 0.02694,-4.402156 0.288203,-8.771237 0.772744,-13.053319 z m 122.271836,0.223193 c 0.47869,4.214478 0.73628,8.512413 0.76287,12.842162 1.84732,0.02537 3.46616,0.05089 4.8705,0.07735 -0.0242,-3.877815 -0.25898,-7.732851 -0.69778,-11.521768 -1.41844,-0.477669 -3.06186,-0.939827 -4.93559,-1.397741 z M 5.8459149,60.255288 c -1.2160053,0.414144 -2.2441742,0.833294 -3.0811084,1.271543 -0.396088,3.386372 -0.6074363,6.825752 -0.6292393,10.282085 0.8281599,-0.02456 1.8284145,-0.04726 3.0144628,-0.06991 0.024196,-3.864767 0.258318,-7.70694 0.6958849,-11.483713 z M 139.7411,60.457595 c 0.43127,3.714334 0.66182,7.492158 0.68567,11.291495 1.09902,0.02229 2.01858,0.04456 2.77229,0.06885 -0.0215,-3.397155 -0.22923,-6.778277 -0.61885,-10.107919 -0.76125,-0.432268 -1.70943,-0.844899 -2.83911,-1.252428 z m 3.70014,0.03239 c 0.0386,0.03942 0.075,0.07881 0.11113,0.118411 0.11496,0.673233 0.22072,1.350109 0.31644,2.030682 -0.034,-0.03335 -0.0694,-0.06648 -0.10577,-0.09965 -0.0978,-0.686735 -0.20445,-1.37023 -0.3218,-2.049443 z M 1.4772462,60.586803 c -0.1153963,0.67441 -0.2213122,1.352733 -0.3174759,2.034574 -0.036515,0.03534 -0.072954,0.07076 -0.1066331,0.106376 0.093593,-0.67423 0.1974721,-1.344763 0.3100324,-2.011743 0.03687,-0.04314 0.074282,-0.08625 0.1140766,-0.129207 z m -0.72011967,1.217383 c -0.0495442,0.182331 -0.0752678,0.362938 -0.0766859,0.536298 0.0244619,-0.17916 0.0509831,-0.357502 0.0766859,-0.536298 z M 144.99106,71.934936 c 0,0.0061 8e-5,0.01198 0,0.01805 0.012,-0.0034 0.0118,-0.01026 0,-0.01805 z m -144.98953993,0.0066 c -0.001861429,0.0017 -0.00212243,0.0032 -1.7218e-4,0.0042 0,-0.0015 8.446e-5,-0.0028 1.7218e-4,-0.0042 z M 144.03654,73.387724 c -0.003,0.184778 -0.007,0.369402 -0.0107,0.553999 -0.14864,0.01812 -0.31062,0.03596 -0.48868,0.05381 -0.0587,3.324295 -0.2993,6.627342 -0.71701,9.875877 0.11921,-0.08156 0.23101,-0.163905 0.33808,-0.246734 -0.11168,0.707579 -0.23331,1.411353 -0.36456,2.110684 -0.086,0.07449 -0.17438,0.148718 -0.26762,0.222485 -0.27599,1.800936 -0.60734,3.572858 -0.9881,5.313079 -0.21298,0.801469 -0.43661,1.595208 -0.67078,2.379722 -0.16086,0.566478 -0.24849,1.189906 -0.32959,1.852447 0.0551,-0.158041 0.10908,-0.317088 0.16324,-0.475935 0.0516,-0.06163 0.10313,-0.123341 0.15268,-0.185147 -0.1185,0.349713 -0.23859,0.69812 -0.36179,1.043574 -0.0273,0.231085 -0.0553,0.466954 -0.0853,0.706739 -0.11256,0.149712 -0.2283,0.299343 -0.35124,0.448693 -0.0176,0.05918 -0.0361,0.117387 -0.0538,0.176465 -0.39121,1.031286 -0.80196,2.040359 -1.22836,3.028048 0.098,-0.289985 0.19511,-0.581109 0.2903,-0.874181 0.35648,-0.862542 0.70112,-1.740417 1.03136,-2.634587 0.10849,-0.688188 0.22516,-1.335858 0.41581,-1.922365 -0.29355,0.934045 -0.60087,1.853318 -0.91798,2.760084 -0.8302,0.914198 -1.85682,1.823511 -3.07211,2.718489 -0.92282,3.12166 -1.98702,6.07661 -3.17147,8.84204 0.69779,-0.60463 1.3383,-1.21488 1.92476,-1.82749 -0.11601,0.21605 -0.23226,0.4313 -0.34881,0.64498 0.12913,-0.23752 0.26133,-0.46939 0.3971,-0.69614 0.003,-0.003 0.006,-0.007 0.01,-0.0101 -0.21732,0.39583 -0.43585,0.78757 -0.65521,1.17508 -0.0296,0.0573 -0.0589,0.11563 -0.0884,0.17344 -0.0654,0.1064 -0.13032,0.21366 -0.1944,0.32232 -0.0899,0.16167 -0.17991,0.32041 -0.26987,0.48072 -0.005,0.005 -0.009,0.01 -0.014,0.0143 0.005,-0.009 0.01,-0.018 0.0149,-0.0269 -0.006,0.01 -0.0112,0.0192 -0.0168,0.0289 -0.47621,0.48429 -0.98328,0.96677 -1.52455,1.4457 -0.71692,1.55871 -1.47074,3.04573 -2.25556,4.45943 -0.2276,0.32633 -0.45501,0.65967 -0.68429,0.9995 0.15271,-0.19809 0.30566,-0.39831 0.4589,-0.59949 -0.0695,0.12307 -0.13901,0.24626 -0.20894,0.36816 -0.20863,0.26579 -0.41689,0.52932 -0.62491,0.7894 -0.70505,1.0534 -1.43875,2.16137 -2.24085,3.29904 1.15733,-1.21986 2.31968,-2.53183 3.46177,-3.95252 0.35195,-0.37634 0.68912,-0.75372 1.01076,-1.1317 -0.20624,0.2734 -0.41308,0.54448 -0.62127,0.81046 -0.16556,0.27902 -0.33748,0.55979 -0.51413,0.84127 -0.19028,0.21713 -0.38679,0.43378 -0.58666,0.65028 0.11097,-0.17535 0.22028,-0.35043 0.32718,-0.52479 -0.43641,0.53349 -0.87589,1.05109 -1.31682,1.5535 -0.27112,0.27087 -0.54782,0.54114 -0.83436,0.81011 -0.10042,0.15134 -0.20181,0.29952 -0.30294,0.44851 -0.36143,0.38949 -0.72316,0.77054 -1.0845,1.14127 -0.0181,0.025 -0.0367,0.0501 -0.0549,0.0752 0.21005,-0.30259 0.41908,-0.60836 0.6263,-0.92074 -1.57895,1.40057 -3.37011,2.76742 -5.36801,4.07818 -1.2807,1.97493 -2.61181,3.73803 -3.97139,5.28423 1.78714,-1.19585 3.41917,-2.44404 4.89716,-3.72507 -0.32953,0.36148 -0.66771,0.72246 -1.01682,1.08269 -1.43722,1.23083 -3.01523,2.42994 -4.73271,3.57957 -1.26449,1.34329 -2.54978,2.50187 -3.83065,3.48259 1.8817,-1.24171 3.61008,-2.54707 5.18468,-3.8911 0.5699,-0.45763 1.14016,-0.94632 1.70908,-1.46323 1.02802,-0.88927 2.05424,-1.87131 3.06604,-2.95407 1.17284,-1.09227 2.23547,-2.20382 3.19675,-3.31975 0.5137,-0.56485 1.0014,-1.13169 1.46032,-1.69898 0.56174,-0.66182 1.11703,-1.35399 1.66476,-2.07299 0.93168,-1.18842 1.84259,-2.45597 2.72278,-3.80542 0.56289,-0.77246 1.06793,-1.54451 1.52021,-2.30963 0.57157,-0.87078 1.07001,-1.73724 1.5003,-2.58946 1.14954,-1.94366 2.23045,-4.02232 3.22116,-6.22816 -0.0799,0.17418 -0.16499,0.34935 -0.25256,0.5248 0.16795,-0.35868 0.33443,-0.71942 0.49751,-1.08499 0.0665,-0.15995 0.12884,-0.31912 0.18937,-0.47789 0.0721,-0.14736 0.14231,-0.29445 0.20843,-0.4409 0.13799,-0.32851 0.27313,-0.66009 0.40697,-0.9933 -0.0558,0.15051 -0.1135,0.3015 -0.17519,0.4531 0.96385,-2.309681 1.82417,-4.737987 2.56369,-7.268881 0.28061,-0.725978 0.44245,-1.442668 0.52018,-2.123606 0.22796,-0.893898 0.44009,-1.797786 0.63738,-2.710352 0.33458,-1.387788 0.62858,-2.798281 0.88198,-4.227031 -0.17956,1.10967 -0.3812,2.208934 -0.60605,3.295675 0.31854,-1.420775 0.59709,-2.862923 0.8316,-4.324025 -0.0253,0.07078 -0.0536,0.141451 -0.0857,0.211865 0.0764,-0.461539 0.1498,-0.92435 0.21742,-1.389423 -0.0169,-0.136568 -0.0435,-0.269788 -0.0769,-0.400012 0.0672,-0.537209 0.12824,-1.076138 0.18469,-1.616156 0.0283,0.07812 0.0533,0.157838 0.0741,0.238946 -0.05,0.456735 -0.10251,0.912732 -0.1603,1.367475 0.18277,-0.345453 0.2485,-0.708694 0.21899,-1.0372 0.31339,-2.543313 0.49451,-5.120025 0.5406,-7.708377 -0.009,0.01205 -0.0226,0.02432 -0.04,0.03628 v -3.62e-4 c 9.1e-4,-0.0416 0.002,-0.08319 0.003,-0.124783 -0.10024,-0.05265 -0.2417,-0.08544 -0.39884,-0.121596 -0.002,0.120618 -0.005,0.241075 -0.008,0.361603 -0.0289,0.0053 -0.0592,0.0105 -0.09,0.01558 0.003,-0.1324 0.007,-0.264691 0.009,-0.397181 -0.1591,-0.03516 -0.30367,-0.0629 -0.41598,-0.0977 z M 0.92521212,73.4033 c -0.12815908,0.03435 -0.28131612,0.064 -0.4429775,0.100888 0.00195,0.12243 0.005566,0.24466 0.008136,0.367091 -0.0304002,-0.0054 -0.0602643,-0.01084 -0.0888033,-0.01646 -0.002305,-0.110016 -0.005671,-0.219993 -0.007444,-0.330098 -0.15031676,0.03643 -0.2815669,0.06778 -0.35867517,0.124782 4.4406e-4,0.02728 0.001373,0.05458 0.001904,0.08195 -0.01338315,-0.01078 -0.02188052,-0.02101 -0.026312,-0.0308 0.04599903,2.64472 0.23185642,5.277158 0.55393826,7.874754 -0.002481,0.323521 0.0948508,0.675953 0.29843413,1.011889 -0.0328818,0.148711 -0.056816,0.300953 -0.0662995,0.457004 0.0508738,0.347536 0.10472073,0.693959 0.160469,1.039502 -0.0255255,-0.06851 -0.0489667,-0.136987 -0.0683767,-0.205317 0.36595376,2.339957 0.83990056,4.634197 1.41635086,6.866583 0.071613,0.567023 0.2169748,1.160499 0.4538831,1.759874 0.1103445,0.643238 0.3011222,1.313591 0.5963492,1.989273 0.6705755,2.285762 1.4387743,4.48679 2.2915733,6.592585 -0.1075083,-0.28211 -0.2042772,-0.56201 -0.2923755,-0.83949 0.2768805,0.72435 0.5624024,1.43915 0.8586043,2.14166 0.1192961,0.31301 0.2486893,0.62842 0.3917382,0.94569 0.2736902,0.61007 0.555087,1.20956 0.8421601,1.80006 0.8460631,1.77411 1.7487759,3.46194 2.6988911,5.0559 0.363295,0.68002 0.771975,1.36801 1.225761,2.05883 0.566613,0.95787 1.21538,1.92666 1.95748,2.89442 1.107434,1.69064 2.262693,3.25153 3.44688,4.68544 0.332806,0.41561 0.668153,0.82105 1.005745,1.2158 0.308964,0.36612 0.630201,0.73174 0.962121,1.09649 1.144127,1.32753 2.433589,2.64852 3.87826,3.93871 1.18339,1.26155 2.38613,2.38326 3.588309,3.37621 0.405748,0.35351 0.811956,0.69333 1.217971,1.01613 1.631858,1.34112 3.419633,2.63863 5.36143,3.86755 -1.268297,-0.96767 -2.541348,-2.11603 -3.793958,-3.45107 -2.017841,-1.29237 -3.855775,-2.65267 -5.509435,-4.05641 0.276969,0.29425 0.555193,0.57906 0.834024,0.85791 -0.635744,-0.61932 -1.242376,-1.24265 -1.818648,-1.86768 -0.910587,-0.79593 -1.82205,-1.65866 -2.725724,-2.58981 0.622538,0.635 1.27966,1.26569 1.974964,1.88926 -0.145088,-0.16447 -0.289686,-0.33234 -0.433977,-0.50107 0.181161,0.16638 0.362392,0.3311 0.543552,0.4924 -1.112308,-1.25476 -2.109993,-2.51052 -3.018097,-3.74135 -0.07622,-0.0766 -0.152536,-0.15466 -0.228846,-0.23205 -0.140567,-0.19883 -0.280627,-0.39878 -0.419954,-0.60196 0.05708,0.0593 0.114124,0.11942 0.171201,0.17824 -0.555533,-0.77283 -1.077111,-1.53347 -1.577339,-2.27512 0.02951,0.0265 0.0579,0.0531 0.08759,0.0795 -1.346911,-2.16335 -2.619908,-4.533 -3.796208,-7.09598 -0.789073,-0.66326 -1.513069,-1.33371 -2.176111,-2.00767 -0.02092,-0.0363 -0.04192,-0.0724 -0.06284,-0.10885 -0.199151,-0.35216 -0.403395,-0.69347 -0.615044,-1.02252 -0.215637,-0.37517 -0.4301905,-0.75457 -0.6434341,-1.1379 0.034477,0.0367 0.070155,0.0733 0.1050753,0.10991 0.00922,0.0154 0.018479,0.0309 0.027697,0.0464 -0.00753,-0.0137 -0.015143,-0.0274 -0.022677,-0.0411 0.7744508,0.81289 1.6454748,1.62179 2.6159738,2.42008 -1.194291,-2.79479 -2.268339,-5.78414 -3.2005518,-8.94542 -1.3221838,-0.921707 -2.4445075,-1.859232 -3.3568659,-2.80397 0.281046,0.944013 0.5779362,1.871397 0.8871667,2.78487 -0.065764,-0.1576 -0.1335975,-0.31215 -0.2054765,-0.46268 -0.6035711,-1.543839 -1.1795063,-3.132496 -1.7165162,-4.762975 0.01356,0.01468 0.026338,0.02948 0.039987,0.04425 C 3.9415344,92.530037 3.2810393,89.404958 2.7885215,86.19077 2.5646419,86.028193 2.3594729,85.863664 2.1713997,85.698188 2.0394295,85.000034 1.917487,84.297535 1.8052812,83.591045 c 0.2052674,0.161397 0.4331936,0.321092 0.68446,0.478774 C 2.0650256,80.766821 1.8202679,77.407106 1.7606198,74.025266 1.447401,73.996448 1.1736545,73.968006 0.93577121,73.937829 c -0.0039,-0.178073 -0.00799,-0.356275 -0.0105591,-0.534529 z M 144.98205,73.651272 c 0,0.0213 -10e-4,0.04269 -10e-4,0.06407 0.0186,-0.02492 0.0202,-0.04876 10e-4,-0.06407 z M 0.01086787,73.672335 c -0.00487472,0.0077 -0.00373466,0.01668 5.1656e-4,0.02602 -1.8125e-4,-0.0087 -3.4437e-4,-0.01732 -5.1656e-4,-0.02602 z M 143.19179,74.02916 c -0.7538,0.06815 -1.67412,0.131018 -2.77385,0.193456 -0.0664,3.794444 -0.33879,7.559408 -0.81013,11.253441 1.13544,-0.44568 2.08853,-0.897397 2.85226,-1.36836 0.42614,-3.313874 0.67189,-6.684929 0.73172,-10.078007 z M 2.1483771,74.057479 c 0.060889,3.452073 0.3106997,6.880799 0.7438351,10.250224 0.8393273,0.477669 1.8725025,0.93623 3.0940915,1.38907 C 5.5081441,81.941659 5.2314105,78.113092 5.1640516,74.253944 3.9773829,74.190237 2.9765369,74.126262 2.1483771,74.057479 Z M 139.72655,74.260317 c -1.4046,0.07449 -3.02386,0.145945 -4.87171,0.217175 -0.0742,4.322136 -0.37837,8.602142 -0.90067,12.788708 1.87869,-0.499418 3.52652,-1.003928 4.94788,-1.524825 v -1.82e-4 c 0.47949,-3.767347 0.75688,-7.608682 0.8245,-11.48088 z m -133.8261068,0.0315 c 0.0686,3.938623 0.3501374,7.844743 0.8362738,11.673985 1.5186769,0.52715 3.269343,1.03826 5.256874,1.544294 -0.52859,-4.25344 -0.836935,-8.603642 -0.912095,-12.997913 C 9.1242782,74.439866 7.401837,74.367219 5.9004432,74.291822 Z M 133.73503,74.519439 c -2.22861,0.08165 -4.72078,0.161414 -7.49012,0.24107 -0.0819,4.905926 -0.41757,9.749239 -0.98445,14.46522 2.79593,-0.545635 5.31291,-1.098863 7.56023,-1.666068 0.52983,-4.266857 0.839,-8.6311 0.91434,-13.03969 z M 12.26329,74.55891 c 0.0764,4.482448 0.389392,8.917973 0.92525,13.252616 2.366424,0.572733 5.008675,1.131553 7.935685,1.682172 v -9.06e-4 c -0.571664,-4.786211 -0.91145,-9.704697 -0.99432,-14.689826 -2.901218,-0.08074 -5.518803,-0.161608 -7.866615,-0.244255 z m 112.33401,0.247264 v 5.44e-4 c -3.22596,0.08917 -6.76424,0.177151 -10.62852,0.264964 -0.0894,5.541912 -0.45662,10.98071 -1.04849,16.235887 3.88181,-0.57101 7.43878,-1.16089 10.68096,-1.766247 0.57264,-4.800165 0.91318,-9.733694 0.99623,-14.735135 z m -102.745858,0.03629 c 0.08402,5.081732 0.428673,10.091655 1.005744,14.961693 3.382916,0.609055 7.086005,1.20189 11.120137,1.7728 -0.59185,-5.32259 -0.963037,-10.839179 -1.053348,-16.466698 -4.018579,-0.08881 -7.704855,-0.177717 -11.072533,-0.267795 z m 12.125881,16.734493 c 1.4e-5,0 -1.4e-5,0 0,0 h 3.62e-4 c -9e-5,-1.8e-5 -2.71e-4,1.8e-5 -3.62e-4,0 z M 111.70732,75.118573 c -4.39676,0.09669 -9.1547,0.192458 -14.287269,0.287973 -0.09643,6.212789 -0.488487,12.226667 -1.024789,17.946738 v 0 c 5.109248,-0.516273 9.860018,-1.105299 14.257848,-1.722709 0.59169,-5.335927 0.96381,-10.86823 1.05439,-16.512183 z m -76.42703,0.04797 c 0.09147,5.730677 0.467492,11.340486 1.057502,16.741574 4.557272,0.614419 9.470115,1.196613 14.742721,1.690147 h -1.81e-4 C 50.567607,87.833958 50.175877,81.755771 50.078917,75.457526 44.769441,75.361194 39.841189,75.264321 35.280282,75.166721 Z m 59.14762,0.296469 c -5.740837,0.103671 -11.891549,0.220536 -18.462586,0.296115 -0.07401,6.729245 -0.195883,13.028615 -0.302416,18.908186 h -1.81e-4 c 6.177431,-0.1044 12.129938,-0.507681 17.769476,-1.02641 0.507228,-5.77227 0.898566,-11.862609 0.995698,-18.178072 z m -41.261127,0.0469 c 0.09767,6.399651 0.484992,12.547426 0.959872,18.356317 5.786749,0.483738 11.857878,0.818997 18.093007,0.828875 h -1.81e-4 C 72.209781,88.81526 72.200061,82.515342 72.190401,75.783017 65.436254,75.772777 59.093473,75.614571 53.166777,75.510265 Z M 0.7888048,80.647061 c 0.0527349,0.525608 0.11208674,1.049719 0.1748368,1.572791 -0.0321727,0.09923 -0.0613902,0.200421 -0.0862066,0.303549 -0.0681565,-0.540471 -0.12952591,-1.082696 -0.18678103,-1.626068 0.0293366,-0.08509 0.062433,-0.168622 0.0981508,-0.250272 z m 0.4031633,2.378479 c 0.035452,0.03951 0.071718,0.07908 0.1100951,0.118411 0.1060017,0.683201 0.2210615,1.362802 0.3463845,2.037938 -0.040327,-0.04531 -0.079183,-0.09071 -0.1166732,-0.13611 C 1.409199,84.376352 1.2955767,83.70285 1.1919681,83.02554 Z M 144.21104,83.07687 c -0.0476,0.32479 -0.0975,0.648643 -0.14939,0.971711 0.11779,-0.330137 0.16401,-0.661783 0.14939,-0.971711 z m -0.48574,0.04708 c -0.10556,0.681751 -0.21969,1.360181 -0.34448,2.033868 -0.0381,0.04341 -0.0769,0.0866 -0.11754,0.129914 0.12781,-0.681751 0.24657,-1.36741 0.3547,-2.057407 0.0364,-0.03543 0.0732,-0.07085 0.10732,-0.106375 z M 0.7933056,83.252626 c 0.004432,0.201635 0.0358896,0.411503 0.0962467,0.623559 C 0.857025,83.668479 0.8240603,83.461058 0.7933056,83.252626 Z M 142.16043,86.234133 c -0.77029,0.550077 -1.73487,1.082517 -2.88342,1.607129 -0.54375,3.575864 -1.27021,7.039017 -2.16192,10.356245 1.22115,-0.851123 2.24908,-1.716075 3.0721,-2.58786 0.81678,-3.016082 1.47914,-6.15093 1.97324,-9.375514 z M 3.196359,86.467415 c 0.5019124,3.276182 1.1744835,6.459968 2.0033523,9.520818 0.8976459,0.884654 2.0049481,1.760146 3.3106473,2.621147 C 7.6081232,95.245081 6.8725294,91.729982 6.3214364,88.098262 5.0869074,87.565675 4.0424221,87.025648 3.196359,86.467415 Z m 135.369001,1.686069 c -1.42836,0.609251 -3.08684,1.200942 -4.97678,1.785364 -0.59719,4.020907 -1.38921,7.892018 -2.35165,11.576992 1.948,-0.91972 3.6613,-1.859406 5.13415,-2.819913 0.90429,-3.37386 1.64177,-6.899254 2.19428,-10.542089 z m 4.66762,0.22213 c -0.1567,0.699061 -0.32217,1.393566 -0.49854,2.081482 -0.008,0.09171 -0.0184,0.18428 -0.0301,0.277352 0.18763,-0.779532 0.36452,-1.565713 0.52866,-2.358834 z m -0.52866,2.358834 c -0.13924,0.578713 -0.28353,1.154445 -0.43553,1.725183 0.22786,-0.586326 0.36551,-1.167495 0.43553,-1.725183 z M 7.0777345,88.419156 c 0.5596996,3.699752 1.3062039,7.277554 2.2206001,10.698911 1.5688414,0.970113 3.3826434,1.917713 5.4365574,2.844333 -0.969328,-3.731951 -1.768593,-7.656258 -2.372067,-11.736289 -1.998521,-0.591582 -3.7594117,-1.19054 -5.2850905,-1.806955 z m -4.8325914,1.38216 c 0.1278047,0.581522 0.2621735,1.159241 0.4022977,1.733151 0.00807,0.129503 0.017941,0.259759 0.031678,0.3917 0.3039127,1.084029 0.6320448,2.149425 0.9813361,3.19638 -0.034477,-0.06515 -0.069778,-0.130428 -0.1023054,-0.195406 0.094214,0.319988 0.1904578,0.638181 0.2883941,0.954725 -0.355584,-1.036813 -0.6889358,-2.093383 -1.0002048,-3.167525 0.010636,0.02464 0.020084,0.04933 0.030986,0.07398 C 2.6598265,91.974443 2.4566765,91.151006 2.2647037,90.320814 2.2525617,90.145274 2.2462947,89.972053 2.2451431,89.801316 Z M 132.44989,90.281338 c -2.25386,0.661357 -4.77941,1.305728 -7.58376,1.938816 -0.63841,4.476739 -1.4733,8.751246 -2.46693,12.787836 2.83306,-0.95091 5.39144,-1.93836 7.67464,-2.95886 0.97057,-3.741232 1.77133,-7.675962 2.37605,-11.767792 z M 13.562967,90.567894 c 0.610662,4.150683 1.41804,8.138545 2.394745,11.926746 2.399129,1.02529 5.077541,2.01567 8.035393,2.96575 -0.992728,-4.07859 -1.830179,-8.402447 -2.472295,-12.937041 -2.934898,-0.637801 -5.584949,-1.288116 -7.957843,-1.955455 z m 109.643073,2.015104 v 0 c -3.24563,0.69997 -6.80561,1.378597 -10.68876,2.029266 -0.64718,4.896324 -1.46703,9.517096 -2.4027,13.837056 3.84211,-0.89581 7.38214,-1.86998 10.61882,-2.90027 0.99248,-4.08679 1.83024,-8.420437 2.47299,-12.966233 z m -99.949846,0.313998 c 0.645759,4.602789 1.484902,8.984594 2.474547,13.112074 3.368121,1.02557 7.042024,1.99046 11.01939,2.86823 h 3.62e-4 c -0.916701,-4.34859 -1.726104,-9.005124 -2.36947,-13.948564 -4.033645,-0.648132 -7.738786,-1.328517 -11.124811,-2.031568 z m 118.770066,0.114523 c -0.20526,0.689629 -0.42033,1.371491 -0.64412,2.045723 -0.0656,0.12596 -0.13409,0.252173 -0.20703,0.378767 0.23416,-0.685097 0.45984,-1.377762 0.67477,-2.079182 0.0625,-0.115447 0.12099,-0.230495 0.17638,-0.345308 z M 4.0141104,94.664129 c 0.053887,0.06987 0.1102434,0.139689 0.1667008,0.209561 0.1078628,0.317994 0.2170537,0.634774 0.3287276,0.949234 -0.026234,-0.221841 -0.052487,-0.438915 -0.080494,-0.651884 0.078438,0.09099 0.1592212,0.181785 0.2420018,0.272582 0.1190303,0.504228 0.2055347,1.042713 0.291683,1.607832 C 4.8371408,96.898933 4.7171882,96.746266 4.6023236,96.593563 4.5864586,96.466787 4.5709056,96.340809 4.5561046,96.21639 4.3701587,95.703734 4.1896869,95.186111 4.0141104,94.664129 Z M 110.24804,94.98467 c -4.3894,0.699054 -9.12538,1.356094 -14.209206,1.916863 -0.548264,5.175167 -1.18534,9.992857 -1.861231,14.456907 4.855865,-0.64949 9.432017,-1.47101 13.708417,-2.40379 0.91254,-4.35386 1.71963,-9.017306 2.36202,-13.969446 z m -73.508815,0.307264 c 0.636364,4.996366 1.42944,9.692916 2.318578,14.070876 4.409069,0.90683 9.112875,1.69139 14.085784,2.28733 -0.619436,-4.46931 -1.209316,-9.29788 -1.726383,-14.490534 -5.23875,-0.530328 -10.13214,-1.175053 -14.677979,-1.867672 z m 56.36322,1.916519 c -5.579358,0.553973 -11.444831,0.958668 -17.503585,1.06198 -0.09803,5.219017 -0.196399,10.055397 -0.295666,14.523977 5.504818,-0.0971 10.899706,-0.48123 16.102287,-1.08975 v 0 c 0.607469,-4.47013 1.187234,-9.30065 1.697308,-14.496026 z m -38.667662,0.23877 c 0.470537,5.208417 0.994382,10.044497 1.538216,14.517607 5.291729,0.54318 10.74792,0.84529 16.279207,0.85437 -0.009,-4.46804 -0.0178,-9.30419 -0.02666,-14.522214 -6.107856,-0.0097 -12.076782,-0.339563 -17.790765,-0.849763 z M 5.9693392,99.588519 c 0.4143459,0.987151 0.8444817,1.953681 1.2882525,2.898331 -0.00479,-0.0158 -0.00984,-0.0312 -0.014713,-0.0467 0.3521265,0.96349 0.7190321,1.90926 1.1014709,2.83442 0.1715877,0.52108 0.3507825,1.05699 0.547187,1.60607 0.2109398,0.37128 0.4243474,0.7371 0.6394524,1.09932 0.1454415,0.31328 0.2925251,0.62352 0.4412463,0.93118 -0.2947835,-0.48029 -0.5864105,-0.96784 -0.8738379,-1.465 0.041036,0.10965 0.083305,0.22007 0.1258483,0.33063 -0.091378,-0.19348 -0.1831967,-0.38631 -0.2733342,-0.58196 -0.1190297,-0.15389 -0.2339088,-0.30773 -0.3465576,-0.46161 -0.055659,-0.15088 -0.1100769,-0.3012 -0.1625461,-0.45045 -0.2674854,-0.48565 -0.5305619,-0.97929 -0.7893617,-1.47952 0.1239932,0.17535 0.2537729,0.35068 0.3867181,0.52603 0.070638,0.1325 0.1408848,0.2656 0.2120545,0.397 -0.023399,-0.0701 -0.045856,-0.13951 -0.068723,-0.2092 0.017814,0.0229 0.034547,0.0457 0.05245,0.0687 -0.044581,-0.10385 -0.087853,-0.20941 -0.1320788,-0.31381 -0.2590664,-0.80772 -0.483919,-1.58583 -0.7054058,-2.3245 -0.3787159,-0.78512 -0.7473835,-1.58621 -1.1056264,-2.4019 C 6.182731,100.22837 6.0750745,99.909504 5.9693392,99.588519 Z M 135.77352,100.82077 c -1.48394,1.02322 -3.20923,2.02474 -5.16894,3.00328 -0.98184,3.4219 -2.10308,6.63475 -3.33955,9.61676 1.99923,-1.1837 3.7691,-2.40587 5.3024,-3.65392 1.19597,-2.8006 2.27202,-5.79696 3.20609,-8.96612 z M 5.647882,101.08361 c 0.097493,0.25592 0.2026113,0.51334 0.3174758,0.77207 -0.1073309,-0.25565 -0.2128037,-0.51343 -0.3174758,-0.77207 z m 4.2556306,0.1855 c 0.9429364,3.20857 2.0278224,6.2391 3.2327494,9.06859 1.623881,1.25621 3.488423,2.48327 5.58612,3.66861 -1.238428,-3.00748 -2.363484,-6.25143 -3.350114,-9.71021 -2.064727,-0.98461 -3.889455,-1.99417 -5.4687554,-3.02699 z m 127.8788974,2.3006 c -0.15502,0.38587 -0.31251,0.76857 -0.47276,1.14782 -0.19179,0.36974 -0.38539,0.73659 -0.58197,1.09844 -0.12081,0.35896 -0.2501,0.72359 -0.38863,1.0926 -0.41018,0.88293 -0.83392,1.74403 -1.27006,2.58291 0.31852,-0.70459 0.59916,-1.39713 0.8515,-2.07245 0.0189,-0.0407 0.0382,-0.0806 0.057,-0.12142 -0.007,0.009 -0.0147,0.0183 -0.0218,0.0274 0.0439,-0.11826 0.0871,-0.2362 0.12932,-0.35328 -0.13117,0.23027 -0.26339,0.45841 -0.39624,0.68515 -0.0756,0.0926 -0.1531,0.1851 -0.23111,0.27771 0.0448,-0.10484 0.0896,-0.21001 0.13451,-0.31523 0.23177,-0.39529 0.46137,-0.79538 0.68827,-1.20128 0.0448,-0.1294 0.0887,-0.25798 0.13191,-0.38584 0.0958,-0.11573 0.19111,-0.23138 0.28285,-0.3471 0.10999,-0.25582 0.21785,-0.51447 0.32544,-0.77347 -0.0372,0.11926 -0.0752,0.23922 -0.11391,0.35983 0.29772,-0.55778 0.5893,-1.12582 0.87575,-1.70182 z m -8.34595,0.82162 c -2.28763,1.08085 -4.84968,2.12466 -7.68399,3.12558 -0.99239,3.68479 -2.10647,7.11229 -3.31601,10.26757 2.80657,-1.15625 5.35875,-2.38296 7.64833,-3.66437 1.2387,-3.01245 2.36416,-6.26232 3.35167,-9.72826 z m -112.837738,0.47276 c 0.991239,3.50228 2.118944,6.78222 3.357904,9.81888 2.395662,1.2798 5.056135,2.50037 7.973075,3.64506 -1.197352,-3.17207 -2.303212,-6.62182 -3.291257,-10.33553 -2.956967,-0.99839 -5.637492,-2.04366 -8.039722,-3.12841 z m 11.330979,13.46394 c 9.1e-5,0 2.72e-4,9.1e-4 3.63e-4,9.1e-4 v -9.1e-4 c -9.1e-5,-5e-5 -1.81e-4,0 -3.63e-4,0 z M 9.7148275,107.30026 c 0.1917065,0.34981 0.3841785,0.69676 0.5774805,1.04021 -0.186922,-0.35814 -0.3785058,-0.70527 -0.5774805,-1.04021 z m 110.3706425,0.78782 c -7e-5,0 0,9.1e-4 0,9.1e-4 0,-8e-5 9e-4,0 9e-4,0 z m 0,9.1e-4 c -3.22667,1.07931 -6.7522,2.0947 -10.57295,3.02116 -0.90554,3.86158 -1.89204,7.41984 -2.93744,10.67164 3.66894,-0.99947 7.08194,-2.12349 10.22432,-3.34435 1.19474,-3.17529 2.29904,-6.6295 3.28607,-10.34845 z m -93.712162,0.48284 c 0.98078,3.74614 2.074366,7.22109 3.254388,10.41253 3.256092,1.20338 6.78115,2.30309 10.559274,3.26913 v 0 c -1.010294,-3.25823 -1.967168,-6.82559 -2.850012,-10.70069 -3.951574,-0.90522 -7.607936,-1.9082 -10.96365,-2.98062 z m 108.014852,2.19353 c -0.19499,0.35468 -0.39209,0.70526 -0.59133,1.05134 -0.28566,0.43862 -0.57429,0.86933 -0.86588,1.29208 0.18941,-0.3189 0.37647,-0.64254 0.56225,-0.96905 0.3017,-0.44939 0.60008,-0.90776 0.89496,-1.37437 z m -2.59399,0.76709 c -1.54262,1.28321 -3.31935,2.53949 -5.323,3.7541 -1.20023,2.69474 -2.48932,5.16541 -3.8459,7.39934 2.0026,-1.30233 3.79428,-2.65851 5.36888,-4.04738 1.34815,-2.16569 2.62239,-4.53873 3.80002,-7.10606 z m -24.49793,0.0995 c -2e-5,0 2e-5,0 0,0 0,-5e-5 0,0 9e-4,0 z m 0,0 c -4.23557,0.95864 -8.760223,1.79395 -13.549333,2.44803 -0.628294,3.91252 -1.281565,7.49639 -1.954529,10.76051 4.438155,-0.64614 8.673922,-1.49384 12.672382,-2.50273 1.0029,-3.25905 1.95354,-6.82795 2.83148,-10.70581 z m -67.671864,0.41806 c 0.851205,3.88915 1.767596,7.46497 2.730916,10.72882 4.100827,0.96695 8.429686,1.76291 12.94796,2.34697 h 3.62e-4 c -0.607648,-3.26167 -1.199435,-6.84287 -1.77243,-10.75412 -4.8977,-0.59793 -9.543531,-1.39225 -13.906792,-2.32131 z m -25.710698,0.052 c 1.184011,2.58853 2.46395,4.97813 3.817154,7.15597 1.655966,1.39295 3.532064,2.74862 5.621608,4.04596 -1.352052,-2.24199 -2.637812,-4.72474 -3.836889,-7.43615 -2.100267,-1.21497 -3.970103,-2.47496 -5.601873,-3.76578 z m -2.060304,0.65878 c 0.29372,0.43136 0.590375,0.85446 0.88959,1.2696 0.108661,0.17961 0.2171,0.35975 0.326824,0.53683 0.193657,0.23833 0.395659,0.47638 0.601369,0.71435 0.131084,0.17182 0.262196,0.34287 0.393988,0.5117 -0.03536,-0.06 -0.06921,-0.11958 -0.104036,-0.17948 0.178767,0.2011 0.362851,0.40187 0.550303,0.60232 0.106534,0.18071 0.214478,0.36195 0.325267,0.54391 0.527437,0.64669 1.059276,1.26877 1.592919,1.87032 -0.636631,-0.62602 -1.23267,-1.25662 -1.787318,-1.88943 -0.05752,-0.0916 -0.115787,-0.18335 -0.172067,-0.2747 -0.69034,-0.87079 -1.370267,-1.78426 -2.036588,-2.7376 -0.195341,-0.31836 -0.388544,-0.64149 -0.580251,-0.96782 z m 79.168509,1.66677 c -5.109614,0.60844 -10.396147,0.98655 -15.783085,1.08234 -0.08996,3.89195 -0.180052,7.45314 -0.271429,10.69715 4.860327,-0.0889 9.655274,-0.4399 14.319823,-1.0273 0.594265,-3.26113 1.173305,-6.84156 1.734691,-10.75219 z m -34.709251,0.2616 c 0.500229,3.90809 1.013092,7.4852 1.537871,10.74316 4.7231,0.51736 9.556107,0.79046 14.43165,0.7988 h 3.62e-4 c -0.0082,-3.24365 -0.01634,-6.80425 -0.02441,-10.69538 -5.410515,-0.009 -10.753506,-0.30537 -15.945458,-0.84658 z m 68.984878,1.29243 c -2.28542,1.3095 -4.82919,2.56058 -7.62236,3.73622 -1.14874,2.79588 -2.36593,5.33605 -3.63627,7.61139 2.70074,-1.21561 5.17952,-2.52429 7.42382,-3.90455 1.35098,-2.24335 2.63617,-4.72856 3.83481,-7.44306 z m -104.54858,0.57913 c 1.195798,2.73 2.475844,5.22627 3.820097,7.47687 2.336467,1.37148 4.908028,2.66561 7.701472,3.86083 -1.249507,-2.27716 -2.448146,-4.82152 -3.581902,-7.62536 -2.900599,-1.16232 -5.550376,-2.40574 -7.939667,-3.71234 z m 95.29556,3.82526 c -3.1165,1.23618 -6.49607,2.36999 -10.12236,3.3739 -0.96687,2.82342 -1.97208,5.37036 -3.011,7.63917 3.40127,-0.99222 6.59624,-2.12893 9.56323,-3.38522 1.24499,-2.27734 2.43965,-4.82255 3.57013,-7.62785 z m -97.452803,0.21558 c 1.293468,1.953 2.643226,3.71233 4.024881,5.2752 1.656497,1.41054 3.503205,2.77837 5.535227,4.07889 -1.350014,-1.54176 -2.672075,-3.3036 -3.945424,-5.28016 -2.08263,-1.30478 -3.956414,-2.6701 -5.614684,-4.07393 z m 11.781401,0.32496 c 1.112663,2.81165 2.285976,5.36013 3.507121,7.63829 3.059778,1.22984 6.344248,2.33344 9.829981,3.28488 h 7.25e-4 c -0.996468,-2.26501 -1.961537,-4.80862 -2.892596,-7.63015 -3.730885,-0.96874 -7.218707,-2.07624 -10.445198,-3.29302 z m 94.551372,2.41194 c -0.19242,0.23408 -0.38555,0.46355 -0.57939,0.69011 -0.29957,0.28673 -0.59961,0.56681 -0.89962,0.83931 0.1839,-0.21323 0.36721,-0.42981 0.54977,-0.64993 0.30996,-0.28565 0.61974,-0.5789 0.92924,-0.87949 z m -21.08427,0.97135 c -3.938987,1.00908 -8.104832,1.8524 -12.461362,2.49282 -0.606581,2.78781 -1.223311,5.29423 -1.856219,7.52643 3.976837,-0.60463 7.80553,-1.41024 11.450081,-2.39105 0.98761,-2.26429 1.94458,-4.80721 2.86819,-7.6282 z m -60.884914,0.44285 c 0.883997,2.81789 1.797188,5.35649 2.738706,7.61633 3.721667,0.93297 7.618445,1.68335 11.652091,2.22644 h 5.44e-4 c -0.568119,-2.2274 -1.121989,-4.72752 -1.668393,-7.50889 -4.432392,-0.57799 -8.686264,-1.36849 -12.722923,-2.33388 z m 77.653664,0.0465 c -2.23109,1.38462 -4.69052,2.69557 -7.36565,3.91091 -1.17408,1.96705 -2.38512,3.70434 -3.61912,5.20459 2.53854,-1.18398 4.89125,-2.47036 7.04523,-3.83622 1.34789,-1.54085 2.66788,-3.30245 3.93954,-5.27928 z m -95.192907,0.60975 c 1.262093,1.97756 2.57107,3.73714 3.90717,5.27291 2.230465,1.3519 4.659768,2.61876 7.273382,3.77763 -1.208561,-1.49254 -2.394939,-3.22392 -3.546244,-5.18653 -2.76455,-1.19386 -5.313883,-2.48927 -7.634308,-3.86401 z m 63.507118,1.73528 c -4.568352,0.58026 -9.258331,0.92514 -14.009791,1.01259 -0.08127,2.75239 -0.162668,5.22516 -0.246157,7.43227 4.268693,-0.0805 8.494064,-0.39786 12.625289,-0.93933 h 5.44e-4 c 0.555003,-2.22649 1.096142,-4.72533 1.630133,-7.50553 z m -30.748767,0.24885 c 0.470449,2.77403 0.945933,5.26729 1.433488,7.48925 4.171973,0.47459 8.423294,0.72072 12.70215,0.72817 -0.0075,-2.20674 -0.01497,-4.67901 -0.02233,-7.43067 -4.765375,-0.008 -9.490361,-0.27628 -14.113308,-0.78675 z m 53.527226,1.99157 c -2.92976,1.25195 -6.07968,2.3824 -9.42751,3.36665 -0.93646,1.91476 -1.89356,3.59405 -2.870085,5.0306 3.093185,-0.93169 6.023115,-2.01053 8.767095,-3.21444 1.20325,-1.49101 2.38432,-3.22121 3.53085,-5.18281 z m -77.060774,0.55896 c 1.120995,1.95625 2.27442,3.67969 3.449478,5.16281 2.817797,1.17333 5.817673,2.21535 8.97605,3.10469 -0.932982,-1.42809 -1.846683,-3.09831 -2.741822,-5.00404 -3.428921,-0.94293 -6.664786,-2.03898 -9.683706,-3.26346 z m 81.181904,1.06336 c -2.13439,1.35463 -4.46097,2.62944 -6.96699,3.80137 -1.12445,1.26834 -2.26603,2.34138 -3.40325,3.21815 2.34914,-1.09772 4.54753,-2.29676 6.58407,-3.57463 1.26573,-0.96503 2.53613,-2.11147 3.78617,-3.44489 z m -85.664129,0.60887 c 1.236124,1.32453 2.492136,2.46016 3.743238,3.41196 2.09823,1.26165 4.357748,2.43932 6.766182,3.51038 -1.110446,-0.86317 -2.224991,-1.9244 -3.322763,-3.18134 -2.578073,-1.14618 -4.978437,-2.40079 -7.186657,-3.741 z m 70.206999,1.67475 c -3.578122,0.97017 -7.332665,1.76513 -11.227641,2.3606 -0.55642,1.84253 -1.119281,3.4535 -1.699719,4.83394 3.525262,-0.54962 6.940079,-1.28733 10.211853,-2.19563 0.924059,-1.4264 1.82885,-3.09504 2.715507,-4.99891 z m -54.09155,0.43098 c 0.842429,1.89446 1.700967,3.55394 2.578583,4.97237 3.329763,0.86024 6.795102,1.54488 10.362107,2.03688 -0.519993,-1.37538 -1.023498,-2.97887 -1.521599,-4.81307 -3.948472,-0.53449 -7.767442,-1.27428 -11.419091,-2.19618 z m 61.14665,1.73492 c -2.70189,1.18878 -5.58262,2.25254 -8.619805,3.17019 -0.86565,1.175 -1.745094,2.15653 -2.626867,2.93389 2.781302,-0.84414 5.434962,-1.82713 7.940522,-2.93 1.10505,-0.86054 2.21387,-1.91942 3.30615,-3.17408 z m -20.467497,0.50923 c -4.039588,0.53231 -8.168353,0.84374 -12.337249,0.92268 h -9.06e-4 c -0.07241,1.80021 -0.145189,3.37226 -0.221057,4.72988 3.734697,-0.0719 7.439298,-0.35566 11.0734,-0.84356 0.50785,-1.37448 0.999364,-2.97635 1.48577,-4.809 z m -48.136547,0.0191 c 1.063207,1.24297 2.142496,2.28986 3.218555,3.1369 2.563183,1.07188 5.27093,2.01885 8.101865,2.8224 -0.840744,-0.76621 -1.677567,-1.73654 -2.501029,-2.89904 -3.09913,-0.87541 -6.046775,-1.90238 -8.819391,-3.06026 z m 21.087565,0.20673 c 0.426222,1.82504 0.856388,3.41994 1.301755,4.79006 3.663348,0.42655 7.386748,0.64615 11.128445,0.65276 -0.0069,-1.35716 -0.01352,-2.92845 -0.02008,-4.72793 -4.178821,-0.007 -8.332249,-0.24856 -12.41012,-0.71489 z m 37.181894,2.93584 c -3.206017,0.89281 -6.548977,1.61716 -9.996511,2.15617 h -7.25e-4 c -0.496151,1.08493 -1.000111,1.98856 -1.521079,2.69814 3.106657,-0.48855 6.130218,-1.14712 9.042863,-1.96219 0.832419,-0.76394 1.66046,-1.73198 2.475415,-2.89212 z m -47.698759,0.39807 c 0.77055,1.14782 1.553907,2.10506 2.343159,2.85849 2.956523,0.77011 6.018055,1.37972 9.15556,1.81616 -0.467435,-0.70477 -0.916526,-1.60016 -1.358879,-2.67548 -3.487063,-0.48229 -6.878002,-1.15394 -10.139148,-1.99917 z m 35.774199,2.03989 c -3.549991,0.47793 -7.167518,0.75553 -10.812875,0.82585 -0.06311,1.03564 -0.126386,1.89448 -0.195783,2.58964 3.259817,-0.0633 6.498365,-0.3132 9.682321,-0.74444 0.456622,-0.70396 0.894796,-1.59764 1.326337,-2.67105 z M 61.473087,141.773 c 0.37659,1.06463 0.758407,1.95081 1.159635,2.65122 3.206283,0.37654 6.458565,0.56989 9.723521,0.57578 -0.0063,-0.69516 -0.01198,-1.55305 -0.01766,-2.58787 -3.652185,-0.007 -7.287136,-0.22141 -10.8655,-0.63913 z"
     style="fill:#7f7f7f;stroke-width:0.0896208;fill-opacity:1;opacity:1" />
</svg>
