<?xml version="1.0" encoding="UTF-8" standalone="no"?>
<svg
   xmlns:dc="http://purl.org/dc/elements/1.1/"
   xmlns:cc="http://creativecommons.org/ns#"
   xmlns:rdf="http://www.w3.org/1999/02/22-rdf-syntax-ns#"
   xmlns:svg="http://www.w3.org/2000/svg"
   xmlns="http://www.w3.org/2000/svg"
   xmlns:sodipodi="http://sodipodi.sourceforge.net/DTD/sodipodi-0.dtd"
   xmlns:inkscape="http://www.inkscape.org/namespaces/inkscape"
   width="119.45782mm"
   height="74.551414mm"
   viewBox="0 0 119.45782 74.551415"
   version="1.1"
   id="svg930"
   inkscape:version="1.0.1 (0767f8302a, 2020-10-17)"
   sodipodi:docname="IC_upload_128BY80.svg">
  <defs
     id="defs924" />
  <sodipodi:namedview
     id="base"
     pagecolor="#ffffff"
     bordercolor="#666666"
     borderopacity="1.0"
     inkscape:pageopacity="0.0"
     inkscape:pageshadow="2"
     inkscape:zoom="0.49497475"
     inkscape:cx="378.18268"
     inkscape:cy="266.63421"
     inkscape:document-units="mm"
     inkscape:current-layer="layer1"
     inkscape:document-rotation="0"
     showgrid="false"
     fit-margin-top="0"
     fit-margin-left="0"
     fit-margin-right="0"
     fit-margin-bottom="0"
     inkscape:window-width="1425"
     inkscape:window-height="889"
     inkscape:window-x="247"
     inkscape:window-y="84"
     inkscape:window-maximized="0"
     inkscape:snap-global="false"
     showborder="false" />
  <metadata
     id="metadata927">
    <rdf:RDF>
      <cc:Work
         rdf:about="">
        <dc:format>image/svg+xml</dc:format>
        <dc:type
           rdf:resource="http://purl.org/dc/dcmitype/StillImage" />
        <dc:title />
      </cc:Work>
    </rdf:RDF>
  </metadata>
  <g
     inkscape:label="Layer 1"
     inkscape:groupmode="layer"
     id="layer1"
     transform="translate(-46.22501,-111.22403)">
    <path
       id="path910"
       style="color:#000000;font-style:normal;font-variant:normal;font-weight:normal;font-stretch:normal;font-size:medium;line-height:normal;font-family:sans-serif;font-variant-ligatures:normal;font-variant-position:normal;font-variant-caps:normal;font-variant-numeric:normal;font-variant-alternates:normal;font-variant-east-asian:normal;font-feature-settings:normal;font-variation-settings:normal;text-indent:0;text-align:start;text-decoration:none;text-decoration-line:none;text-decoration-style:solid;text-decoration-color:#000000;letter-spacing:normal;word-spacing:normal;text-transform:none;writing-mode:lr-tb;direction:ltr;text-orientation:mixed;dominant-baseline:auto;baseline-shift:baseline;text-anchor:start;white-space:normal;shape-padding:0;shape-margin:0;inline-size:0;clip-rule:nonzero;display:inline;overflow:visible;visibility:visible;isolation:auto;mix-blend-mode:normal;color-interpolation:sRGB;color-interpolation-filters:linearRGB;solid-color:#000000;solid-opacity:1;vector-effect:none;fill:#ffffff;fill-opacity:1;fill-rule:nonzero;stroke:none;stroke-width:2.70244;stroke-linecap:butt;stroke-linejoin:miter;stroke-miterlimit:4;stroke-dasharray:none;stroke-dashoffset:0;stroke-opacity:1;color-rendering:auto;image-rendering:auto;shape-rendering:auto;text-rendering:auto;enable-background:accumulate;stop-color:#000000"
       d="m 108.83788,116.25444 -4.2e-4,4e-4 c -11.630132,0 -21.686451,6.76068 -26.4703,16.56584 -0.54139,-0.0433 -1.076234,-0.10331 -1.633388,-0.10331 -11.705124,0 -21.223029,9.51773 -21.223029,21.22343 0,11.70534 9.517983,21.22385 21.223029,21.22385 1.799982,6.2e-4 12.226945,1.7e-4 16.593597,0 v -2.70203 c -4.36647,1.7e-4 -14.792991,6.3e-4 -16.593188,0 -10.24437,0 -18.520588,-8.27697 -18.520588,-18.52182 0,-10.24526 8.275905,-18.52058 18.520588,-18.52058 0.768064,0 1.52824,0.0523 2.283477,0.14496 l 0.989424,0.12128 0.407941,-0.9098 c 4.179421,-9.32122 13.531012,-15.81978 24.422437,-15.81978 13.78587,0 25.10975,10.40237 26.58748,23.78132 l 0.13271,1.20259 h 1.21035 c 0.11885,0 0.17645,-0.004 0.17314,-0.004 7.89335,0 14.26275,6.36941 14.26275,14.26234 0,7.89293 -6.36944,14.26235 -14.26275,14.26235 -22.11101,0 -17.22316,-2.1e-4 -20.85144,0 v 2.70244 c 3.62851,-2e-4 -1.25909,0 20.85144,0 9.35381,0 16.96519,-7.61137 16.96519,-16.96479 0,-9.0204 -7.08431,-16.39946 -15.97822,-16.91497 -2.13976,-14.16062 -14.3455,-25.03003 -29.09023,-25.03003 z m -2.12913,14.54533 -17.418461,22.68491 H 102.6559 l 0.002,16.3392 h 8.10161 l 0.002,-16.3392 h 13.36602 z" />
  </g>
</svg>
